<?xml version="1.0" encoding="UTF-8" standalone="no"?>
<svg width="163px" height="163px" viewBox="0 0 163 163" version="1.1" xmlns="http://www.w3.org/2000/svg" xmlns:xlink="http://www.w3.org/1999/xlink" xmlns:sketch="http://www.bohemiancoding.com/sketch/ns">
    <!-- Generator: Sketch 3.3.3 (12081) - http://www.bohemiancoding.com/sketch -->
    <title>Codeigniter</title>
    <desc>Created with Sketch.</desc>
    <defs></defs>
    <g id="Page-1" stroke="none" stroke-width="1" fill="none" fill-rule="evenodd" sketch:type="MSPage">
        <g id="Artboard-1" sketch:type="MSArtboardGroup" transform="translate(-468.000000, -374.000000)">
            <g id="Codeigniter" sketch:type="MSLayerGroup" transform="translate(468.000000, 374.000000)">
                <path d="M0,163 L162.682261,163 L162.682261,0 L0,0 L0,163" id="Shape-Copy-4" fill="#5EA0C0" sketch:type="MSShapeGroup"></path>
                <path d="M30.9267001,136.032694 C28.6432949,136.032694 27.9792434,134.703532 27.9792434,132.711378 C27.9792434,132.047326 28.0629118,131.298547 28.1656439,130.509523 C28.6655359,127.064292 29.8866705,125.09332 32.8341272,125.09332 C34.8273408,125.09332 35.7995885,125.985076 35.7995885,127.60443 L35.7995885,128.393455 L37.7769157,128.393455 C37.7991567,128.393455 37.7991567,127.666917 37.7991567,127.501698 C37.7991567,125.135683 36.3662034,122.891464 32.8373045,122.891464 C28.0417299,122.891464 26.0696982,125.496834 25.3431602,130.603782 C25.239369,131.289016 25.1768825,131.928708 25.1768825,132.611823 C25.1768825,135.621766 26.3609488,138.359523 30.5952039,138.359523 C33.8127294,138.359523 35.7233338,136.791005 36.8438545,134.860278 L34.954432,133.588307 C33.7301201,135.519034 32.400958,136.032694 30.9267001,136.032694 L30.9267001,136.032694 L30.9267001,136.032694 Z M43.9016524,126.525214 C40.0603209,126.525214 38.4007216,128.496186 37.8404613,132.419068 C37.7769157,132.877656 37.7356111,133.354247 37.7356111,133.789535 C37.7356111,136.321827 38.9186183,138.336222 42.1975712,138.336222 C46.0389027,138.336222 47.7207429,136.280522 48.2810032,132.419068 C48.3434897,131.921294 48.3847944,131.464825 48.3847944,131.008356 C48.3858534,128.434759 47.1615415,126.525214 43.9016524,126.525214 L43.9016524,126.525214 L43.9016524,126.525214 Z M45.4998242,132.420127 C45.0846596,135.264852 44.192903,136.136486 42.5100037,136.136486 C41.1617779,136.136486 40.4977264,135.576225 40.4977264,133.894385 C40.4977264,133.47922 40.5400902,132.981447 40.6226994,132.420127 C41.037864,129.597643 41.8681932,128.72601 43.5701561,128.72601 C44.9406229,128.72601 45.6247972,129.28627 45.6247972,130.988233 C45.6247972,131.403398 45.5824334,131.881049 45.4998242,132.420127 L45.4998242,132.420127 L45.4998242,132.420127 Z M58.0405481,123.097988 L57.3976785,126.908606 C57.3563738,127.240102 57.3775557,127.129956 57.5025287,127.441329 C56.9009637,126.98486 55.8206885,126.683018 55.0941505,126.683018 C51.6478609,126.683018 49.7181928,128.243063 49.095446,132.602291 C49.0128367,133.121247 48.9916548,133.558652 48.9916548,133.99394 C48.9916548,137.17122 50.8598954,138.355286 53.3710057,138.355286 C54.4311581,138.355286 55.4680105,138.377527 56.2771577,137.693353 L56.4836809,138.984388 L58.4768946,138.984388 L60.8016044,123.097988 L58.0405481,123.097988 L58.0405481,123.097988 Z M56.0685164,135.533862 C55.1354551,136.093063 54.2225167,136.219095 53.6622563,136.219095 C52.1466938,136.219095 51.7315292,135.430071 51.7315292,134.164454 C51.7315292,133.686803 51.7940157,133.127601 51.8776841,132.523918 C52.3542761,129.223784 53.4133694,128.641282 54.7838361,128.641282 C55.6755927,128.641282 56.359767,128.787437 57.0047548,129.141174 L56.0685164,135.533862 L56.0685164,135.533862 Z M66.8638545,126.525214 C63.0638277,126.525214 61.2803146,128.329909 60.6776904,132.419068 C60.6141449,132.917901 60.5728402,133.395552 60.5728402,133.852021 C60.5728402,136.654382 62.0057935,138.336222 65.1597734,138.336222 C67.6094562,138.336222 69.4374513,137.318434 70.4128764,135.450193 L68.3158715,134.598682 C67.7143065,135.511621 66.9051591,136.134368 65.4722059,136.134368 C63.9365206,136.134368 63.3137737,135.721321 63.3137737,134.350854 C63.3137737,134.080785 63.3349556,133.687862 63.3762602,133.687862 L70.8693456,133.687862 C70.9741955,132.628769 71.0970504,131.879989 71.0970504,131.259361 C71.0970504,129.184597 70.3090853,126.525214 66.8638545,126.525214 L66.8638545,126.525214 L66.8638545,126.525214 Z M68.2957487,131.570734 L63.7289383,131.570734 C64.1864666,130.511641 64.9532502,128.872164 66.5312992,128.872164 C67.7556111,128.872164 68.3582352,129.588112 68.3582352,130.812423 C68.3571761,131.020006 68.3381124,131.570734 68.2957487,131.570734 L68.2957487,131.570734 L68.2957487,131.570734 Z M79.0857916,126.275268 L79.3346782,124.157081 L73.4800104,124.157081 L73.2321825,126.275268 L74.767868,126.275268 L73.1082688,136.866201 L71.5704654,136.866201 L71.3226376,138.984388 L77.1762462,138.984388 L77.426192,136.866201 L75.8894478,136.866201 L77.5490469,126.275268 L79.0857916,126.275268 L79.0857916,126.275268 Z M90.9815277,129.452548 L91.7292476,127.334361 L89.7159111,127.334361 L88.2638941,127.634085 C87.4536876,127.116188 86.3532895,126.727501 85.3164374,126.727501 C82.3467396,126.727501 79.8155065,128.161513 79.8155065,131.421402 C79.8155065,132.3354 80.1470028,133.073588 80.5409858,133.572421 C79.919298,133.903917 79.3791603,134.458882 79.3791603,135.207661 C79.3791603,135.539157 79.503074,135.879126 79.7530202,136.18944 C78.5064675,136.938219 77.740743,138.178418 77.740743,139.630434 C77.740743,142.433854 80.6670179,143.032242 82.9091184,143.032242 C85.7316018,143.032242 89.0952825,142.387254 89.0952825,138.795869 C89.0952825,137.571557 88.3274396,136.615196 86.1065209,136.200031 L82.099971,135.451252 C81.6435018,135.367584 81.5397107,135.222488 81.5397107,135.014906 C81.5397107,134.703532 81.7282291,134.538314 82.0385436,134.538314 L82.3086124,134.579618 C82.8487501,134.703532 83.4714967,134.767078 84.1143663,134.767078 C87.0003956,134.767078 89.5739924,133.520525 89.5739924,130.282877 C89.5739924,129.825349 89.4913831,129.516093 89.2838009,129.01726 C89.636479,129.183538 90.0940075,129.453607 90.2793486,129.453607 L90.9815277,129.453607 L90.9815277,129.452548 L90.9815277,129.452548 Z M85.2740738,138.044972 C86.0620389,138.191126 86.3310489,138.481318 86.3310489,139.000274 C86.3310489,140.682114 84.5252946,140.889697 83.2183736,140.889697 C81.2251598,140.889697 80.4784991,140.413104 80.4784991,139.352952 C80.4784991,138.418832 80.7475087,137.983544 81.3713149,137.318434 L85.2740738,138.044972 L85.2740738,138.044972 Z M84.4215035,132.607587 C83.2173144,132.607587 82.553263,132.172299 82.553263,131.133329 C82.553263,129.597643 83.4460784,128.704828 85.0029457,128.704828 C86.2484397,128.704828 86.8510636,129.223784 86.8510636,130.239454 C86.8510636,131.776198 85.9783708,132.607587 84.4215035,132.607587 L84.4215035,132.607587 L84.4215035,132.607587 Z M98.3559943,126.525214 C97.1931096,126.525214 96.1562575,127.096065 94.8683999,128.111736 L94.6819995,127.334361 L92.3975354,127.334361 L90.7993633,138.984388 L93.5604197,138.984388 L94.7646088,130.149431 C95.5748154,129.651657 96.5703631,128.928297 97.4218741,128.928297 C98.4587262,128.928297 98.8336454,129.429248 98.8336454,130.383491 C98.8336454,130.612255 98.8114043,131.289016 98.7700999,131.537903 L97.7544292,138.984388 L100.515486,138.984388 L101.531156,131.477534 C101.57352,131.125915 101.614824,130.54765 101.614824,130.216154 C101.615884,128.242004 100.680704,126.525214 98.3559943,126.525214 L98.3559943,126.525214 L98.3559943,126.525214 Z M106.859455,136.065526 L106.880636,135.78063 L108.083766,127.334361 L103.495774,127.334361 L103.206642,129.452548 L105.218919,129.452548 C105.052641,129.452548 104.94885,129.637889 104.928727,129.805226 L104.098398,135.430071 C104.057094,135.701198 104.036971,136.264636 104.036971,136.491282 C104.036971,137.944358 104.824936,138.984388 106.443231,138.984388 L107.855002,138.984388 L108.166376,136.866201 L107.274619,136.866201 C106.962186,136.866201 106.859455,136.314413 106.859455,136.065526 L106.859455,136.065526 L106.859455,136.065526 Z M108.644027,123.097988 L105.945457,123.097988 C105.779179,123.097988 105.779179,122.486891 105.759057,122.694473 L105.384137,125.678998 C105.362956,125.866458 105.362956,126.275268 105.529233,126.275268 L108.228862,126.275268 C108.39514,126.275268 108.39514,125.549789 108.415263,125.36127 L108.790182,123.057742 C108.811364,122.85016 108.811364,123.097988 108.644027,123.097988 L108.644027,123.097988 L108.644027,123.097988 Z M114.274167,136.136486 C113.589992,136.136486 113.257437,135.845235 113.257437,135.223547 L113.278619,135.181183 L114.150253,129.452548 L117.305292,129.452548 L118.259535,127.334361 L114.440445,127.334361 L115.083314,122.673291 L112.178221,123.602116 L111.658206,127.334361 L109.977425,127.334361 L109.687234,129.452548 L111.638083,129.452548 C111.451683,130.511641 111.264223,129.824289 111.244101,130.032931 L110.496381,135.056211 C110.455076,135.284975 110.455076,135.451252 110.455076,135.657775 C110.455076,137.629807 111.908152,138.367995 113.653538,138.367995 C115.271833,138.367995 116.579813,137.89564 117.597602,137.04307 L116.309744,135.458666 C115.664756,135.852649 115.229469,136.136486 114.274167,136.136486 L114.274167,136.136486 L114.274167,136.136486 Z M124.404394,126.525214 C120.605427,126.525214 118.820855,128.329909 118.21823,132.419068 C118.155744,132.917901 118.114439,133.395552 118.114439,133.852021 C118.114439,136.654382 119.546333,138.336222 122.701372,138.336222 C125.151055,138.336222 126.97905,137.318434 127.953416,135.450193 L125.85747,134.598682 C125.255905,135.511621 124.445699,136.134368 123.012746,136.134368 C121.478119,136.134368 120.854314,135.721321 120.854314,134.350854 C120.854314,134.080785 120.876555,133.687862 120.917859,133.687862 L128.410944,133.687862 C128.514736,132.628769 128.639709,131.879989 128.639709,131.259361 C128.639709,129.184597 127.850684,126.525214 124.404394,126.525214 L124.404394,126.525214 L124.404394,126.525214 Z M125.837347,131.570734 L121.270537,131.570734 C121.727006,130.511641 122.49379,128.872164 124.072898,128.872164 C125.29721,128.872164 125.899834,129.588112 125.899834,130.812423 C125.898775,131.020006 125.878652,131.570734 125.837347,131.570734 L125.837347,131.570734 L125.837347,131.570734 Z M136.278949,126.525214 C135.282342,126.525214 134.348221,127.096065 133.414101,127.986763 L133.247824,127.334361 L130.965478,127.334361 L129.366247,138.984388 L132.148484,138.984388 L133.372797,129.963031 C134.099335,129.527743 134.929664,129.156001 135.718688,129.156001 C136.217521,129.156001 136.694113,129.076569 137.150583,129.139056 L137.505379,126.731737 C137.088096,126.649128 136.672932,126.525214 136.278949,126.525214 L136.278949,126.525214 L136.278949,126.525214 Z M65.7825203,114.753392 C59.4989196,112.037876 53.6188335,105.134706 53.6050653,98.0716127 C53.5881198,90.3709453 58.4684218,83.8331623 64.5380856,79.5364205 C63.8083703,82.2932404 63.4101512,84.8149419 65.2180235,87.2805111 C66.8988046,89.5734481 69.8420247,90.6876143 72.6210857,90.0828719 C79.1154459,88.6615685 79.413051,81.5222207 75.5632472,77.3631611 C71.7568658,73.2443472 68.0743982,68.5917505 69.5232378,62.6184642 C70.2487166,59.6244074 72.0873029,56.8199281 74.4162491,54.8150645 C72.6263814,59.519557 77.7132063,64.1594449 81.0652369,66.4703865 C86.8796591,70.4801136 93.2585781,73.5101796 98.6048814,78.2104357 C104.228667,83.1500471 108.381371,89.8297484 107.54257,97.575957 C106.633868,105.972449 99.9615797,111.812289 92.4780262,114.760805 C108.292408,111.270034 124.633159,98.9962012 124.967832,81.4565568 C125.245314,67.0274696 115.347028,55.9228763 103.084846,49.5651389 L102.444094,49.2156381 C102.780886,50.0321991 102.891032,50.7269643 102.878323,51.348652 C102.988468,50.8900646 103.062605,50.4187681 103.083787,49.9326443 C103.078491,50.5373866 103.001177,51.1082379 102.859259,51.6441391 L102.878323,51.348652 C102.694041,52.1270856 102.384785,52.8504463 101.97068,53.5123797 L102.150726,53.3185656 C99.7042202,57.375952 93.0817094,58.2571177 89.8101705,54.0556945 C84.5507129,47.2976201 89.920316,40.0110581 90.6712132,32.8547646 C91.6116879,23.8853033 85.9868433,15.1784971 79.012714,9.967758 C82.8540454,16.1814585 77.7936975,24.4021408 73.744784,28.9975467 C69.8187249,33.4531523 65.0443322,37.172688 60.7105224,41.2205427 C56.0547481,45.5681207 51.5790198,50.1476402 47.7525156,55.250352 C40.0995074,65.4631886 35.4140785,78.3078723 38.8571909,91.0498241 C42.2981851,103.782244 53.3275828,111.887485 65.7825203,114.753392 L65.7825203,114.753392 L65.7825203,114.753392 Z" id="Shape" fill="#FBFBFB" sketch:type="MSShapeGroup"></path>
            </g>
        </g>
    </g>
</svg>