<?xml version="1.0" encoding="UTF-8" standalone="no"?>
<svg width="163px" height="163px" viewBox="0 0 163 163" version="1.1" xmlns="http://www.w3.org/2000/svg" xmlns:xlink="http://www.w3.org/1999/xlink" xmlns:sketch="http://www.bohemiancoding.com/sketch/ns">
    <!-- Generator: Sketch 3.3.3 (12081) - http://www.bohemiancoding.com/sketch -->
    <title>Css</title>
    <desc>Created with Sketch.</desc>
    <defs></defs>
    <g id="Page-1" stroke="none" stroke-width="1" fill="none" fill-rule="evenodd" sketch:type="MSPage">
        <g id="Artboard-1" sketch:type="MSArtboardGroup" transform="translate(-64.000000, -568.000000)">
            <g id="Css" sketch:type="MSLayerGroup" transform="translate(64.000000, 568.000000)">
                <g id="Group" sketch:type="MSShapeGroup">
                    <path d="M0,163 L163,163 L163,0 L0,0 L0,163" id="Shape" fill="#1073BB"></path>
                    <path d="M69.5236387,43.117957 L73.5874961,44.3777051 C73.3070215,45.5610469 72.8657754,46.5492344 72.2643945,47.343541 C71.6626953,48.138166 70.9155059,48.7376367 70.0234629,49.1416348 C69.1311016,49.5462695 67.9951953,49.7484277 66.6160625,49.7484277 C64.9427656,49.7484277 63.5760488,49.5061562 62.5155938,49.0232051 C61.4548203,48.5392988 60.5401738,47.6889609 59.7700625,46.470918 C59.0005879,45.2538301 58.615373,43.6957793 58.615373,41.7977207 C58.615373,39.266127 59.2890215,37.3206328 60.6375918,35.9602832 C61.985207,34.600252 63.8931348,33.9205547 66.3591465,33.9205547 C68.2906328,33.9205547 69.8085703,34.3175488 70.9126406,35.1118555 C72.0163926,35.9058438 72.837123,37.1251602 73.373877,38.7698047 L69.096082,39.6952754 C68.9512285,39.2317441 68.8000078,38.8930098 68.6414648,38.6793906 C68.3785,38.3186895 68.0575938,38.0407617 67.6774727,37.8471992 C67.2976699,37.6533184 66.8736152,37.5568555 66.405627,37.5568555 C65.3432617,37.5568555 64.5285801,37.9786816 63.9628555,38.8229707 C63.5349805,39.4498203 63.321043,40.4329141 63.321043,41.7744805 C63.321043,43.4344062 63.586873,44.5719043 64.120125,45.188248 C64.6524219,45.8045918 65.3996113,46.112127 66.3623301,46.112127 C67.2979883,46.112127 68.0050645,45.8564844 68.4826035,45.3455176 C68.9604609,44.8342324 69.307791,44.0915 69.5236387,43.117957" id="Shape" fill="#FFFFFF"></path>
                    <path d="M74.8708027,44.4649355 L79.5761543,44.1873262 C79.6678418,44.9096836 79.854082,45.4588535 80.1345566,45.835791 C80.5914023,46.4476777 81.2437207,46.7542578 82.0927852,46.7542578 C82.726002,46.7542578 83.2130918,46.594123 83.5550098,46.2748086 C83.8966094,45.9551758 84.0678867,45.5842871 84.0678867,45.163416 C84.0678867,44.7648301 83.916666,44.4073125 83.6132695,44.0911816 C83.3079629,43.7747324 82.5251172,43.4754746 81.263459,43.1953184 C79.1985801,42.7251016 77.7258496,42.1052559 76.8459043,41.3338711 C75.9567266,40.5628047 75.5126152,39.5809844 75.5126152,38.3890469 C75.5126152,37.6023809 75.7415156,36.8612402 76.1977246,36.1640332 C76.6545703,35.4668262 77.3415898,34.918293 78.2578281,34.5190703 C79.1747031,34.1208027 80.432541,33.9215098 82.0300684,33.9215098 C83.9882969,33.9215098 85.4814023,34.2904883 86.5093848,35.029082 C87.5380039,35.7679941 88.1498906,36.9436953 88.3463184,38.5568223 L83.6406484,38.8407988 C83.5384551,38.0945645 83.3235625,37.551125 82.9975625,37.2117539 C82.6712441,36.8714277 82.2201289,36.7017422 81.6451719,36.7017422 C81.1727266,36.7017422 80.8168008,36.8192168 80.5777129,37.0544844 C80.3379883,37.2900703 80.2182852,37.5753203 80.2182852,37.9115078 C80.2182852,38.1569629 80.273998,38.378541 80.3854238,38.5765605 C80.4923926,38.7796738 80.9619727,38.9684609 81.7951191,39.144832 C83.8542676,39.593082 85.3295449,40.0451523 86.2206328,40.5035898 C87.1117207,40.9613906 87.759582,41.5296621 88.1654902,42.2080859 C88.5707617,42.8868281 88.7732383,43.6457969 88.7732383,44.4853105 C88.7732383,45.4706328 88.5016777,46.3785937 87.9576016,47.2107852 C87.4141621,48.0429766 86.6545566,48.6746016 85.6791035,49.1043867 C84.7030137,49.5348086 83.472873,49.7493828 81.9886816,49.7493828 C79.3822734,49.7493828 77.5768574,49.2517871 76.5733887,48.2569141 C75.5699199,47.2617227 75.0026035,45.9978359 74.8708027,44.4649355" id="Shape" fill="#FFFFFF"></path>
                    <path d="M90.2711191,44.4649355 L94.9761523,44.1873262 C95.0675215,44.9096836 95.2534434,45.4588535 95.5342363,45.835791 C95.991082,46.4476777 96.6437187,46.7542578 97.4921465,46.7542578 C98.1250449,46.7542578 98.6127715,46.594123 98.9550078,46.2748086 C99.2966074,45.9551758 99.4685215,45.5842871 99.4685215,45.163416 C99.4685215,44.7648301 99.3163457,44.4073125 99.0135859,44.0911816 C98.7082793,43.7747324 97.9244785,43.4754746 96.6640937,43.1953184 C94.5982598,42.7251016 93.1255293,42.1052559 92.2452656,41.3338711 C91.3564062,40.5628047 90.9119766,39.5809844 90.9119766,38.3890469 C90.9119766,37.6023809 91.1405586,36.8612402 91.5974043,36.1640332 C92.0536133,35.4668262 92.7412695,34.918293 93.6581445,34.5190703 C94.5743828,34.1208027 95.8319023,33.9215098 97.4294297,33.9215098 C99.3876582,33.9215098 100.881082,34.2904883 101.909383,35.029082 C102.937365,35.7679941 103.549252,36.9436953 103.745998,38.5568223 L99.0403281,38.8407988 C98.9378164,38.0945645 98.7232422,37.551125 98.3969238,37.2117539 C98.0702871,36.8714277 97.6204453,36.7017422 97.0448516,36.7017422 C96.573043,36.7017422 96.2164805,36.8192168 95.9770742,37.0544844 C95.7379863,37.2900703 95.6179648,37.5753203 95.6179648,37.9115078 C95.6179648,38.1569629 95.6736777,38.378541 95.7844668,38.5765605 C95.8917539,38.7796738 96.3622891,38.9684609 97.1957539,39.144832 C99.254584,39.593082 100.729225,40.0451523 101.620631,40.5035898 C102.5114,40.9613906 103.158943,41.5296621 103.565488,42.2080859 C103.970441,42.8868281 104.173236,43.6457969 104.173236,44.4853105 C104.173236,45.4706328 103.901357,46.3785937 103.357918,47.2107852 C102.813842,48.0429766 102.054236,48.6746016 101.078465,49.1043867 C100.102693,49.5348086 98.8725527,49.7493828 97.3883613,49.7493828 C94.7816348,49.7493828 92.9774922,49.2517871 91.97275,48.2569141 C90.9692812,47.2617227 90.4026016,45.9978359 90.2711191,44.4649355" id="Shape" fill="#FFFFFF"></path>
                    <path d="M163,116.179523 C150.817342,103.596051 119.066406,55.3945312 119.066406,55.3945312 L54.4394531,55.3945312 L43.296875,112.0625 L94.5527344,163 L163,163 L163,116.179523" id="Shape" opacity="0.191" fill="#010101"></path>
                    <path d="M54.5858984,55.3945313 L52.0425254,68.1117148 L103.805531,68.1117148 L102.189857,76.3263418 L50.3924687,76.3263418 L47.8834785,89.0435254 L99.6464844,89.0435254 L96.7596016,103.548934 L75.8959199,110.457332 L57.8169277,103.548934 L59.0543906,97.2587891 L46.337207,97.2587891 L43.3121562,112.519664 L73.215334,123.965639 L107.689834,112.519664 L112.261156,89.5592676 L113.189174,84.9541992 L119.066406,55.3945313 L54.5858984,55.3945313" id="Shape" fill="#FFFFFF"></path>
                </g>
            </g>
        </g>
    </g>
</svg>