<?xml version="1.0" encoding="UTF-8" standalone="no"?>
<svg width="163px" height="163px" viewBox="0 0 163 163" version="1.1" xmlns="http://www.w3.org/2000/svg" xmlns:xlink="http://www.w3.org/1999/xlink" xmlns:sketch="http://www.bohemiancoding.com/sketch/ns">
    <!-- Generator: Sketch 3.3.3 (12081) - http://www.bohemiancoding.com/sketch -->
    <title>Django</title>
    <desc>Created with Sketch.</desc>
    <defs></defs>
    <g id="Page-1" stroke="none" stroke-width="1" fill="none" fill-rule="evenodd" sketch:type="MSPage">
        <g id="Artboard-1" sketch:type="MSArtboardGroup" transform="translate(-468.000000, -187.000000)">
            <g id="Django" sketch:type="MSLayerGroup" transform="translate(468.000000, 187.000000)">
                <path d="M0,163 L163,163 L163,0 L0,0 L0,163" id="Shape-Copy-5" fill="#092E20" sketch:type="MSShapeGroup"></path>
                <g id="Group" transform="translate(39.000000, 27.000000)" fill="#FFFFFF" sketch:type="MSShapeGroup">
                    <path d="M38.8458261,0.683779762 L56.6979304,0.683779762 L56.6979304,82.8980655 C47.5400522,84.6279762 40.8163478,85.3199405 33.5138261,85.3199405 C11.7206783,85.3199405 0.360452174,75.5178571 0.360452174,56.7165179 C0.360452174,38.609375 12.4169043,26.8452381 31.0796522,26.8452381 C33.9774783,26.8452381 36.1798261,27.0766369 38.8465739,27.7671131 L38.8465739,0.683779762 L38.8458261,0.683779762 Z M38.8458261,42.0677083 C36.7593913,41.3764881 35.0206957,41.1458333 32.8183478,41.1458333 C23.7763826,41.1458333 18.5595478,46.6822917 18.5595478,56.3690476 C18.5595478,65.828125 23.5445565,71.0178571 32.7024348,71.0178571 C34.6722087,71.0178571 36.2957391,70.9025298 38.8458261,70.5580357 L38.8458261,42.0677083 L38.8458261,42.0677083 Z" id="Shape"></path>
                    <path d="M85.0973739,28.1123512 L85.0973739,69.2886905 C85.0973739,83.4739583 84.0541565,90.2782738 80.9245043,96.1614583 C78.0259304,101.813244 74.2000522,105.386905 66.3179652,109.30878 L49.7409043,101.465774 C57.6237391,97.7752976 61.4488696,94.5483631 63.8830435,89.5863095 C66.4338783,84.5126488 67.2460174,78.6287202 67.2460174,63.1741071 L67.2460174,28.1123512 L85.0973739,28.1123512 L85.0973739,28.1123512 Z M67.2460174,0.77827381 L85.0973739,0.77827381 L85.0973739,19.0022321 L67.2460174,19.0022321 L67.2460174,0.77827381 L67.2460174,0.77827381 Z" id="Shape"></path>
                </g>
            </g>
        </g>
    </g>
</svg>