<?xml version="1.0" encoding="UTF-8" standalone="no"?>
<svg width="163px" height="163px" viewBox="0 0 163 163" version="1.1" xmlns="http://www.w3.org/2000/svg" xmlns:xlink="http://www.w3.org/1999/xlink" xmlns:sketch="http://www.bohemiancoding.com/sketch/ns">
    <!-- Generator: Sketch 3.3.3 (12081) - http://www.bohemiancoding.com/sketch -->
    <title>GitHub</title>
    <desc>Created with Sketch.</desc>
    <defs></defs>
    <g id="Page-1" stroke="none" stroke-width="1" fill="none" fill-rule="evenodd" sketch:type="MSPage">
        <g id="Artboard-1" sketch:type="MSArtboardGroup" transform="translate(-869.000000, -187.000000)">
            <g id="GitHub" sketch:type="MSLayerGroup" transform="translate(869.000000, 187.000000)">
                <path d="M163,163 L163,0 L0,0 L0,163 L163,163 Z" id="Shape-Copy-8" fill="#000000" sketch:type="MSShapeGroup"></path>
                <path d="M18.4374318,83.0549062 C18.4374318,110.92191 36.5048576,134.554977 61.5658237,142.891923 C64.7182131,143.469339 65.8691049,141.521667 65.8691049,139.858884 C65.8691049,138.357699 65.8113386,133.384871 65.7805464,128.119393 C48.2443488,131.929875 44.5376986,120.68306 44.5376986,120.68306 C41.666381,113.400688 37.5362755,111.460775 37.5362755,111.460775 C31.8050951,107.550157 37.9710623,107.627137 37.9710623,107.627137 C44.302692,108.065866 47.6361399,114.124306 47.6361399,114.124306 C53.2634888,123.762287 62.4010332,120.975586 65.9883326,119.358992 C66.5615615,115.294412 68.1935518,112.507712 69.9913276,110.937306 C55.9924229,109.343868 41.2660815,103.932065 41.2660815,79.7677698 C41.2660815,72.8779379 43.7256448,67.2584719 47.7516725,62.8435994 C47.1088531,61.2424014 44.9379981,54.8260314 48.3751544,46.1465528 C48.3751544,46.1465528 53.6637883,44.452978 65.7188387,52.6129294 C70.7456151,51.2080629 76.1382037,50.5152368 81.4998768,50.4920811 C86.8577317,50.5152368 92.2540154,51.2156994 97.2886747,52.6205659 C109.320816,44.452978 114.617086,46.1541893 114.617086,46.1541893 C118.06582,54.8414276 115.894965,61.2500379 115.248327,62.8435994 C119.289751,67.2584719 121.7301,72.8780611 121.7301,79.7677698 C121.7301,103.99365 106.980603,109.328349 92.9316917,110.891118 C95.2026831,112.846427 97.2118172,116.680065 97.2118172,122.561388 C97.2118172,130.990833 97.1270768,137.788165 97.1270768,139.866644 C97.1270768,141.544822 98.2740273,143.507768 101.468787,142.891923 C126.510662,134.539581 144.562568,110.906514 144.562568,83.0549062 C144.562568,48.2288492 116.326057,19.992338 81.5,19.992338 C46.6739431,19.992338 18.4374318,48.2288492 18.4374318,83.0549062 Z" id="Shape" fill="#FFFFFF" sketch:type="MSShapeGroup"></path>
            </g>
        </g>
    </g>
</svg>