<?xml version="1.0" encoding="UTF-8" standalone="no"?>
<svg width="163px" height="163px" viewBox="0 0 163 163" version="1.1" xmlns="http://www.w3.org/2000/svg" xmlns:xlink="http://www.w3.org/1999/xlink" xmlns:sketch="http://www.bohemiancoding.com/sketch/ns">
    <!-- Generator: Sketch 3.3.3 (12081) - http://www.bohemiancoding.com/sketch -->
    <title>HTML</title>
    <desc>Created with Sketch.</desc>
    <defs></defs>
    <g id="Page-1" stroke="none" stroke-width="1" fill="none" fill-rule="evenodd" sketch:type="MSPage">
        <g id="Artboard-1" sketch:type="MSArtboardGroup" transform="translate(-670.000000, -568.000000)">
            <g id="HTML" sketch:type="MSLayerGroup" transform="translate(670.000000, 568.000000)">
                <g id="Group" sketch:type="MSShapeGroup">
                    <path d="M0,163 L163,163 L163,0 L0,0 L0,163" id="Shape" fill="#E44E25"></path>
                    <path d="M163,116.088154 C150.717695,103.47985 111.964127,55.8224063 111.964127,55.8224063 L49.373082,55.8224063 L55.0376504,117.816209 L100.408955,163 L163,163 L163,116.088154" id="Shape" opacity="0.1" fill="#000000"></path>
                    <path d="M51.3570977,35.1452832 L55.6040117,35.1452832 L55.6040117,39.8566836 L60.4290664,39.8566836 L60.4290664,35.1452832 L64.6753437,35.1452832 L64.6753437,48.7147148 L60.4290664,48.7147148 L60.4290664,43.2494395 L55.6040117,43.2494395 L55.6040117,48.7147148 L51.3570977,48.7147148 L51.3570977,35.1452832" id="Shape" fill="#FFFFFF"></path>
                    <path d="M66.4123125,35.1452832 L79.5369961,35.1452832 L79.5369961,38.3489336 L75.097793,38.3489336 L75.097793,48.7147148 L70.8515156,48.7147148 L70.8515156,38.3489336 L66.4123125,38.3489336 L66.4123125,35.1452832" id="Shape" fill="#FFFFFF"></path>
                    <path d="M81.2746016,35.1452832 L86.8716777,35.1452832 L89.0037305,43.4321777 L91.1144531,35.1452832 L96.715668,35.1452832 L96.715668,48.7147148 L93.2410938,48.7147148 L93.2410938,38.4262949 L90.620041,48.7147148 L87.396334,48.7147148 L84.7488574,38.4262949 L84.7488574,48.7147148 L81.2746016,48.7147148 L81.2746016,35.1452832" id="Shape" fill="#FFFFFF"></path>
                    <path d="M99.417584,35.1452832 L103.663225,35.1452832 L103.663225,45.3225957 L110.419447,45.3225957 L110.419447,48.7147148 L99.417584,48.7147148 L99.417584,35.1452832" id="Shape" fill="#FFFFFF"></path>
                    <path d="M80.6254668,92.6228398 L80.5824883,92.6228398 L52.7346387,92.6228398 L49.6713848,59.0871816 L49.373082,55.8224063 L80.5824883,55.8224063 L80.6254668,55.8224063 L111.803355,55.8224063 L111.505689,59.0871816 L110.937736,65.256668 L110.687506,67.9920117 L110.647711,67.9920117 L80.6254668,67.9920117 L80.5824883,67.9920117 L62.9940879,67.9920117 L64.1331777,80.4538711 L80.5824883,80.4538711 L80.6254668,80.4538711 L106.1945,80.4538711 L109.553191,80.4538711 L109.24884,83.7218301 L106.32057,115.759926 L106.133057,117.816209 L80.6257852,124.718877 L80.6257852,124.720787 L80.5678438,124.736705 L55.0376504,117.816209 L53.2920859,98.7082793 L59.0582109,98.7082793 L65.803291,98.7082793 L66.690877,108.413783 L80.5710273,112.073643 L80.5824883,112.070777 L80.5824883,112.069186 L94.482377,108.406461 L95.929957,92.6228398 L80.6254668,92.6228398" id="Shape" fill="#FFFFFF"></path>
                </g>
            </g>
        </g>
    </g>
</svg>