<?xml version="1.0" encoding="UTF-8" standalone="no"?>
<svg width="163px" height="163px" viewBox="0 0 163 163" version="1.1" xmlns="http://www.w3.org/2000/svg" xmlns:xlink="http://www.w3.org/1999/xlink" xmlns:sketch="http://www.bohemiancoding.com/sketch/ns">
    <!-- Generator: Sketch 3.3.3 (12081) - http://www.bohemiancoding.com/sketch -->
    <title>Jquery</title>
    <desc>Created with Sketch.</desc>
    <defs></defs>
    <g id="Page-1" stroke="none" stroke-width="1" fill="none" fill-rule="evenodd" sketch:type="MSPage">
        <g id="Artboard-1" sketch:type="MSArtboardGroup" transform="translate(-468.000000, -568.000000)">
            <g id="Jquery" sketch:type="MSLayerGroup" transform="translate(468.000000, 568.000000)">
                <g id="Group" sketch:type="MSShapeGroup">
                    <path d="M0,163 L162.682261,163 L162.682261,0 L0,0 L0,163" id="Shape" fill="#3558A8"></path>
                    <path d="M123.600708,71.6308594 L30.1855029,71.6308594 L25.7371598,93.5976562 L107.07829,163 L162.682579,163 L162.682579,105.058594 L123.600708,71.6308594" id="Shape" opacity="0.102" fill="#010101"></path>
                    <path id="Shape" fill="#5DA3C2" d="M101.604604,72.6989551 L101.699608,73.0997695 C101.726298,73.2150156 101.653536,73.3079766 101.53629,73.3079766"></path>
                    <path d="M93.9874522,72.0112988 C93.9639396,72.1220879 93.9353431,72.2624844 93.9156433,72.3554453 L93.080308,76.2731758 L93.9591735,72.1456465 L93.9874522,72.0112988" id="Shape" fill="#5DA3C2"></path>
                    <path id="Shape" fill="#5DA3C2" d="M68.9556725,74.6333066 L68.4943158,76.2703105 L68.9556725,74.6339434 L68.9556725,74.6333066"></path>
                    <path d="M123.498713,69.9744355 L123.001135,67.8662598 C122.608727,66.3403633 121.496641,65.6189609 118.996355,65.6189609 L108.48206,65.6189609 C108.239626,65.6189609 107.997827,65.7284766 107.948259,65.9659727 L103.959049,84.9210898 C103.90694,85.1611328 103.892006,85.3314551 103.919014,85.4495664 C103.94761,85.5718164 104.415004,85.5492129 104.654897,85.5492129 L108.296819,85.5492129 C108.540524,85.5492129 108.983135,85.5676777 109.111819,85.5157852 C109.24654,85.4600723 109.305957,85.0987344 109.355524,84.8593281 L110.642684,78.2132578 L112.215173,70.8410098 C112.266329,70.6047871 112.504634,70.4109063 112.746115,70.4109063 L123.161275,70.4039023 C123.401803,70.4039023 123.554,70.2109766 123.498713,69.9744355" id="Shape" fill="#FFFFFF"></path>
                    <path d="M138.315509,62.2901953 C138.071168,62.2930605 133.696222,62.2901953 133.696222,62.2901953 C133.454105,62.2901953 133.143039,62.5509316 133.008318,62.7511797 L124.899942,74.702709 C124.761725,74.9035938 124.605398,74.8962715 124.551382,74.6600488 L123.952444,72.0405879 C123.900971,71.8030918 123.658854,71.6095293 123.413877,71.6095293 L118.202643,71.6095293 C117.96275,71.6095293 117.818815,71.8100957 117.881409,72.0444082 L120.217425,80.2494844 C120.285103,80.484752 120.29114,80.8680566 120.231088,81.1033242 L119.141879,85.2595059 C119.083733,85.4950918 119.232752,85.5664043 119.478682,85.5664043 L124.624144,85.5664043 C124.865626,85.5664043 125.115686,85.4957285 125.174468,85.2595059 L126.264947,81.0450645 C126.324682,80.8101152 126.492448,80.4904824 126.637337,80.2950098 L139.869569,62.7126582 C140.018589,62.5200508 139.996665,62.2889219 139.755501,62.2889219 L138.315509,62.2901953" id="Shape" fill="#FFFFFF"></path>
                    <path d="M84.0597037,65.6351973 L79.3565341,65.6351973 C79.1169591,65.6351973 78.871347,65.7198809 78.8233684,65.9576953 L77.2689903,73.2452598 L75.7206491,80.2233789 C75.6710819,80.4596016 75.4311891,80.4433652 75.1887544,80.4433652 L72.0981092,80.4433652 C69.040191,80.4433652 69.3931988,78.5080586 70.0220039,75.6068496 C70.0293119,75.5778789 71.9830877,65.9576953 71.9830877,65.9576953 C72.0259825,65.7205176 71.8677485,65.6351973 71.6281735,65.6351973 L67.1471033,65.6351973 C66.9049864,65.6351973 66.6647758,65.7205176 66.6177505,65.9576953 L64.8152183,75.599209 C63.9160175,80.8123438 63.888692,85.399584 69.9225517,85.5508047 C70.0220039,85.554625 79.4496316,85.5508047 79.4496316,85.5508047 C79.693655,85.5508047 79.9329123,85.4705781 79.9850214,85.2359473 L82.0309415,75.5670547 L84.0692359,65.8580488 C84.0695536,65.8577305 84.1419981,65.6351973 84.0597037,65.6351973" id="Shape" fill="#FFFFFF"></path>
                    <path d="M37.2154737,65.6189609 L32.1732768,65.6189609 C31.9314776,65.6189609 31.6874542,65.676584 31.6340741,65.9150352 L30.7240702,69.8598262 C30.6722788,70.0928652 30.8270175,70.2794238 31.0710409,70.2794238 L35.8990819,70.2794238 C36.1431053,70.2794238 36.3849045,70.0591191 36.4360604,69.8238516 L37.3127018,65.8494531 C37.3127018,65.8494531 37.3826043,65.6189609 37.2154737,65.6189609" id="Shape" fill="#FFFFFF"></path>
                    <path d="M30.7440877,71.6098477 C30.5041949,71.6098477 30.2579474,71.8018184 30.2061559,72.0389961 L29.5265127,75.0474922 L28.0099454,81.9953672 C28.0099454,81.9953672 27.2025712,85.6896094 27.1250429,85.9207383 C27.1250429,85.9207383 26.4453996,88.5873164 24.8220721,88.4803477 C24.066807,88.4306836 23.2035107,88.2568594 23.2035107,88.2568594 L23.2012865,88.2568594 C22.7478733,88.1193281 22.7160994,88.5914551 22.6604951,88.8273594 L21.6589825,93.1564102 C21.6014717,93.3929512 21.7565283,93.606252 21.9961033,93.6100723 C21.9961033,93.6100723 24.1672125,93.916334 25.6996667,93.916334 L25.9516335,93.916334 C29.7387622,93.916334 31.7392456,91.6852715 33.0181442,85.6275293 L34.5169181,78.6156641 L35.9225945,72.0918437 C35.974386,71.8543477 35.8317212,71.634043 35.5896043,71.634043" id="Shape" fill="#FFFFFF"></path>
                    <path d="M98.1962203,73.9294141 C98.1962203,74.1930156 97.3659688,74.1430332 97.3659688,74.1430332 L90.7538246,74.0946426 C90.5253704,74.0946426 90.4599162,73.7737363 90.4440292,73.5445176 C90.4437115,73.5365586 90.4608694,73.2691367 90.4799337,73.202918 C90.9911754,71.4261543 92.5160039,70.4118613 94.9333606,70.4118613 C97.6535224,70.4118613 98.2343489,71.7629785 98.2343489,73.2621328 M95.9599747,65.5893535 C87.4788908,65.5893535 85.4536238,70.8422832 84.3275575,76.0484141 C83.2008558,81.3567383 83.2974483,85.5527148 92.0733938,85.5527148 L92.3901793,85.5527148 L100.102018,85.5527148 C100.339686,85.5482578 100.57799,85.3305 100.625333,85.0945957 L101.487994,81.727627 C101.537879,81.4888574 101.377103,81.4185 101.137528,81.4185 L93.2436257,81.4185 C90.3846121,81.4185 89.3611754,80.5363262 89.4612632,78.5545391 C89.4593567,78.329459 89.7170429,77.755457 89.9585244,77.755457 L102.116799,77.755457 C102.6506,77.7522734 102.667758,77.4390078 102.667758,77.4390078 C103.905351,71.8419316 103.986692,65.5893535 95.9599747,65.5893535" id="Shape" fill="#FFFFFF"></path>
                    <path d="M54.8223333,76.5278633 L53.8446511,79.8747754 C53.7772904,80.1097246 53.5014932,80.2660391 53.259694,80.2660391 L48.2174971,80.2660391 C44.3912865,80.2660391 43.4612651,77.3030684 44.3912865,72.8823301 C45.3254386,68.3629004 47.1749961,65.5664316 50.9382943,65.2834102 C56.0834386,64.8946934 57.136425,68.5357695 55.8889825,72.7202852 L54.8223333,76.5278633 M59.3030858,80.0743867 C59.3030858,80.0743867 61.678501,74.2929805 62.2180214,70.9508437 C62.9554932,66.4794863 60.7227427,59.9935508 52.0900975,59.9935508 C43.5086082,59.9935508 39.7850273,66.1850039 38.3596511,72.9170312 C36.9403119,79.6971309 38.7984483,85.6001504 47.3325945,85.5523965 L60.3579786,85.5444375 C60.5978713,85.5438008 60.8479318,85.3492832 60.9092554,85.1175176 L62.0079961,80.9279082 C62.067731,80.6913672 61.9187115,80.4990781 61.6750058,80.4984414 L60.6261501,80.4904824 L59.5769766,80.4860254 C59.3710819,80.4837969 59.2522476,80.3497676 59.2795731,80.172123 C59.283386,80.1399688 59.2875166,80.1074961 59.3030858,80.0743867" id="Shape" fill="#FFFFFF"></path>
                </g>
            </g>
        </g>
    </g>
</svg>