<?xml version="1.0" encoding="UTF-8" standalone="no"?>
<svg width="163px" height="163px" viewBox="0 0 163 163" version="1.1" xmlns="http://www.w3.org/2000/svg" xmlns:xlink="http://www.w3.org/1999/xlink" xmlns:sketch="http://www.bohemiancoding.com/sketch/ns">
    <!-- Generator: Sketch 3.3.3 (12081) - http://www.bohemiancoding.com/sketch -->
    <title>JS</title>
    <desc>Created with Sketch.</desc>
    <defs></defs>
    <g id="Page-1" stroke="none" stroke-width="1" fill="none" fill-rule="evenodd" sketch:type="MSPage">
        <g id="Artboard-1" sketch:type="MSArtboardGroup" transform="translate(-266.000000, -568.000000)">
            <g id="JS" sketch:type="MSLayerGroup" transform="translate(266.000000, 568.000000)">
                <g id="Group" sketch:type="MSShapeGroup">
                    <path d="M0,163 L163,163 L163,0 L0,0 L0,163" id="Shape" fill="#67A969"></path>
                    <path d="M29.8624277,34.955541 L34.0644531,34.955541 L34.0644531,42.4057871 C34.0644531,43.9689316 33.9250117,45.1595957 33.6467656,45.9745957 C33.3682012,46.7905508 32.808207,47.481709 31.964873,48.0490254 C31.1224941,48.6166602 30.0432559,48.9 28.7281133,48.9 C27.3372012,48.9 26.259873,48.7147148 25.4958105,48.3435078 C24.7314297,47.9723008 24.1411914,47.4301348 23.724459,46.7170098 C23.3077266,46.0038848 23.0613164,45.1213926 22.9858652,44.071125 L27.1878906,43.5512441 C27.1939395,44.1211074 27.245832,44.5429336 27.3435684,44.8186328 C27.440668,45.094332 27.6058965,45.3162285 27.8386172,45.4855957 C27.9977969,45.5973398 28.2241504,45.6527344 28.5164043,45.6527344 C28.9799355,45.6527344 29.3199434,45.4779551 29.5367461,45.1277598 C29.7538672,44.7766094 29.8624277,44.1873262 29.8624277,43.3573633 L29.8624277,34.955541" id="Shape" fill="#FFFFFF"></path>
                    <path d="M42.7559824,44.1246094 C42.2583867,44.3019355 41.7410527,44.4579316 41.2036621,44.5938711 C40.4698437,44.788707 40.0050391,44.9806777 39.8102031,45.1697832 C39.6093184,45.3639824 39.5087168,45.5865156 39.5087168,45.8351543 C39.5087168,46.1181758 39.6077266,46.348668 39.8054277,46.5291777 C40.0037656,46.7090508 40.2941094,46.7994648 40.6786875,46.7994648 C41.0823672,46.7994648 41.4570762,46.7014102 41.8021777,46.5068926 C42.1472793,46.3120566 42.392416,46.0739238 42.5375879,45.7934492 C42.6833965,45.513293 42.7559824,45.1487715 42.7559824,44.7011582 L42.7559824,44.1246094 L42.7559824,44.1246094 Z M39.890748,42.2144531 L36.0704355,41.8327402 C36.2054199,41.1584551 36.4005742,40.6264766 36.6552617,40.2387148 C36.9099492,39.8506348 37.2766992,39.5147656 37.7564668,39.2301523 C38.1006133,39.0244922 38.5736953,38.8662676 39.1757129,38.7538867 C39.7774121,38.6411875 40.4290937,38.585793 41.129166,38.585793 C42.253293,38.585793 43.1564785,38.6491465 43.839041,38.7761719 C44.5219219,38.9041523 45.0895566,39.1693457 45.5432188,39.5730254 C45.8631699,39.8544551 46.1159473,40.2504941 46.2996406,40.7627344 C46.4836523,41.2749746 46.5759766,41.764293 46.5759766,42.229416 L46.5759766,46.6017637 C46.5759766,47.0675234 46.6052656,47.4323633 46.6638438,47.6969199 C46.7224219,47.9617949 46.8516758,48.2989375 47.0506504,48.7089844 L43.3971582,48.7089844 C43.2503945,48.4501582 43.1539316,48.2530937 43.1093613,48.1181094 C43.0644727,47.9824883 43.0202207,47.7698242 42.9766055,47.4794805 C42.4895156,47.9528809 42.0046543,48.2912969 41.5232949,48.4944102 C40.8646094,48.7650156 40.0992734,48.9 39.2282422,48.9 C38.0703691,48.9 37.1907422,48.6328965 36.5896797,48.097416 C35.9886172,47.5619355 35.6884043,46.9022949 35.6884043,46.1181758 C35.6884043,45.3818105 35.9039336,44.7766094 36.3359473,44.3035273 C36.7676426,43.8285352 37.5654512,43.4748379 38.729373,43.2440273 C40.1221953,42.9657812 41.0256992,42.7703086 41.4395664,42.6576094 C41.8534336,42.5449102 42.2918145,42.3975098 42.7556641,42.2141348 C42.7556641,41.7907168 42.6709805,41.4933691 42.5032051,41.3233652 C42.3351113,41.153043 42.0406289,41.068041 41.6184844,41.068041 C41.0769551,41.068041 40.6713652,41.1660957 40.4007598,41.3606133 C40.1903242,41.5121523 40.020002,41.7967656 39.890748,42.2144531 L39.890748,42.2144531 Z" id="Shape" fill="#FFFFFF"></path>
                    <path d="M47.2442129,38.7758535 L51.1546211,38.7758535 L53.0705078,45.0707734 L54.9749336,38.7758535 L58.8964844,38.7758535 L54.6852266,48.7089844 L51.3303555,48.7089844 L47.2442129,38.7758535" id="Shape" fill="#FFFFFF"></path>
                    <path d="M66.7287617,44.1246094 C66.231166,44.3019355 65.713832,44.4579316 65.1764414,44.5938711 C64.442623,44.788707 63.9778184,44.9806777 63.7833008,45.1697832 C63.582416,45.3639824 63.4814961,45.5865156 63.4814961,45.8351543 C63.4814961,46.1181758 63.5805059,46.348668 63.778207,46.5291777 C63.9765449,46.7090508 64.2675254,46.7994648 64.6514668,46.7994648 C65.0551465,46.7994648 65.4301738,46.7014102 65.7752754,46.5068926 C66.120377,46.3120566 66.3655137,46.0739238 66.5113223,45.7934492 C66.6564941,45.513293 66.7290801,45.1487715 66.7290801,44.7011582 L66.7290801,44.1246094 L66.7287617,44.1246094 Z M63.8635273,42.2144531 L60.0432148,41.8327402 C60.1785176,41.1584551 60.3733535,40.6264766 60.628041,40.2387148 C60.8827285,39.8506348 61.2494785,39.5147656 61.7289277,39.2301523 C62.0733926,39.0244922 62.5464746,38.8662676 63.1484922,38.7538867 C63.7501914,38.6411875 64.4015547,38.585793 65.1019453,38.585793 C66.2257539,38.585793 67.1292578,38.6491465 67.8118203,38.7761719 C68.4943828,38.9041523 69.0626543,39.1693457 69.5163164,39.5730254 C69.8365859,39.8544551 70.0890449,40.2504941 70.2727383,40.7627344 C70.4570684,41.2749746 70.5490742,41.764293 70.5490742,42.229416 L70.5490742,46.6017637 C70.5490742,47.0675234 70.5783633,47.4323633 70.6369414,47.6969199 C70.6952012,47.9617949 70.8244551,48.2989375 71.0234297,48.7089844 L67.3696191,48.7089844 C67.2231738,48.4501582 67.1263926,48.2530937 67.0818223,48.1181094 C67.0369336,47.9824883 66.993,47.7698242 66.9490664,47.4794805 C66.4619766,47.9528809 65.9771152,48.2912969 65.4954375,48.4944102 C64.836752,48.7650156 64.0717344,48.9 63.2003848,48.9 C62.0425117,48.9 61.1628848,48.6328965 60.5615039,48.097416 C59.9604414,47.5619355 59.6602285,46.9022949 59.6602285,46.1181758 C59.6602285,45.3818105 59.8760762,44.7766094 60.3084082,44.3035273 C60.7397852,43.8285352 61.5375938,43.4748379 62.7015156,43.2440273 C64.0946563,42.9657812 64.9981602,42.7703086 65.4120273,42.6576094 C65.8258945,42.5449102 66.2642754,42.3975098 66.7284434,42.2141348 C66.7284434,41.7907168 66.6437598,41.4933691 66.4759844,41.3233652 C66.3075723,41.153043 66.0130898,41.068041 65.5912637,41.068041 C65.0500527,41.068041 64.6441445,41.1660957 64.3735391,41.3606133 C64.1624668,41.5121523 63.9921445,41.7967656 63.8635273,42.2144531 L63.8635273,42.2144531 Z" id="Shape" fill="#FFFFFF"></path>
                    <path d="M78.5717305,44.1815957 L82.7734375,43.9335938 C82.8555742,44.5785898 83.0211211,45.0685449 83.2719883,45.4047324 C83.6804434,45.9519922 84.2627227,46.2260996 85.0210547,46.2260996 C85.5858242,46.2260996 86.0216582,46.0834746 86.3266465,45.7972695 C86.6322715,45.5120195 86.7847656,45.1809258 86.7847656,44.8052617 C86.7847656,44.4490176 86.6494629,44.1300215 86.3791758,43.847 C86.1063418,43.5639785 85.4072246,43.2971934 84.2805508,43.0469629 C82.4362949,42.6270469 81.1211523,42.0727832 80.3348047,41.3844902 C79.5414531,40.6955605 79.144459,39.8197539 79.144459,38.7548418 C79.144459,38.052541 79.3485273,37.3897168 79.7560273,36.7670059 C80.1641641,36.1439766 80.7773242,35.6552949 81.5958262,35.2990508 C82.4149648,34.943125 83.5375,34.7648437 84.9643867,34.7648437 C86.7131348,34.7648437 88.0470605,35.0940273 88.9648906,35.753668 C89.8833574,36.4133086 90.4299805,37.4632578 90.6047598,38.9041523 L86.4030527,39.1582031 C86.3113652,38.4915586 86.1197129,38.0063789 85.8280957,37.7033008 C85.5364785,37.3995859 85.1343906,37.2480469 84.6211953,37.2480469 C84.1990508,37.2480469 83.8806914,37.3527871 83.6667539,37.5629043 C83.4537715,37.7727031 83.3468027,38.0280273 83.3468027,38.3282402 C83.3468027,38.5472715 83.3961484,38.745291 83.4954766,38.9222988 C83.5913027,39.1028086 84.0109004,39.2724941 84.7552246,39.430082 C86.5934316,39.829623 87.9108027,40.2339395 88.7070195,40.6430312 C89.5025996,41.0518047 90.0820137,41.5595879 90.4436699,42.1651074 C90.8059629,42.770627 90.9874277,43.4490508 90.9874277,44.1991055 C90.9874277,45.0787324 90.7445195,45.8902305 90.2590215,46.6329629 C89.7735234,47.3766504 89.0947813,47.9395098 88.2234316,48.3244063 C87.3517637,48.708666 86.2534238,48.9003184 84.9280938,48.9003184 C82.5999316,48.9003184 80.9880781,48.4565254 80.0918965,47.5679844 C79.1953965,46.679125 78.6885684,45.550541 78.5717305,44.1815957" id="Shape" fill="#FFFFFF"></path>
                    <path d="M100.156178,44.8886719 L103.97649,45.2710215 C103.777834,46.011207 103.450879,46.6514277 102.996262,47.1910469 C102.541645,47.7313027 101.961594,48.1509004 101.256428,48.4511133 C100.550625,48.7503711 99.6534883,48.8996816 98.5621523,48.8996816 C97.5118848,48.8996816 96.6363965,48.8022637 95.9353691,48.6071094 C95.2352969,48.4125918 94.6332793,48.0964609 94.1299531,47.6596719 C93.6269453,47.2232012 93.2321797,46.7109609 92.9450195,46.1226328 C92.6588145,45.5339863 92.5152344,44.7546426 92.5152344,43.7839648 C92.5152344,42.7690352 92.6896953,41.9241094 93.0379805,41.2501426 C93.2923496,40.754457 93.6415898,40.3103457 94.0841094,39.9171719 C94.5263105,39.5243164 94.980291,39.2311074 95.4463691,39.0381816 C96.1881465,38.7357402 97.1378125,38.5848379 98.293457,38.5848379 C99.9132695,38.5848379 101.147867,38.8599004 101.997887,39.4112988 C102.84727,39.9623789 103.442283,40.7697383 103.784838,41.8321035 L99.9645254,42.4054687 C99.861377,41.9632676 99.6725898,41.6299453 99.3978457,41.4051836 C99.1231016,41.1804219 98.7550781,41.0677227 98.293457,41.0677227 C97.7102227,41.0677227 97.2387324,41.2994883 96.8770762,41.7617461 C96.5160566,42.2246406 96.3355469,42.9240762 96.3355469,43.8613262 C96.3355469,44.6973379 96.516375,45.3318281 96.8789863,45.7654336 C97.2409609,46.1993574 97.702582,46.4158418 98.264168,46.4158418 C98.7312012,46.4158418 99.1240566,46.2916816 99.442416,46.0417695 C99.7607754,45.7918574 99.9992266,45.407916 100.156178,44.8886719" id="Shape" fill="#FFFFFF"></path>
                    <path d="M105.695312,38.7758535 L109.253297,38.7758535 L109.253297,40.4832148 C109.597762,39.7608574 109.952414,39.2645352 110.319482,38.9920195 C110.684641,38.720459 111.137348,38.5854746 111.676648,38.5854746 C112.240145,38.5854746 112.857125,38.75325 113.527271,39.0894375 L112.342338,41.9161504 C111.890904,41.7334121 111.533705,41.6410879 111.271059,41.6410879 C110.771234,41.6410879 110.383473,41.8435645 110.106818,42.2472441 C109.713326,42.8161523 109.515943,43.8807461 109.515943,45.440707 L109.515943,48.7089844 L105.695631,48.7089844 L105.695631,38.7758535" id="Shape" fill="#FFFFFF"></path>
                    <path d="M114.291016,38.7758535 L118.111328,38.7758535 L118.111328,48.7089844 L114.291016,48.7089844 L114.291016,38.7758535 L114.291016,38.7758535 Z M114.291016,34.955541 L118.111328,34.955541 L118.111328,37.6303965 L114.291016,37.6303965 L114.291016,34.955541 L114.291016,34.955541 Z" id="Shape" fill="#FFFFFF"></path>
                    <path d="M124.197086,43.7992461 C124.197086,44.6861953 124.361041,45.3448809 124.686404,45.7737109 C125.012404,46.2022227 125.425953,46.4164785 125.925141,46.4164785 C126.364477,46.4164785 126.732818,46.2108184 127.027937,45.799498 C127.323693,45.3872227 127.47173,44.6900156 127.47173,43.7072402 C127.47173,42.7995977 127.317645,42.1332715 127.009154,41.7073066 C126.700346,41.2819785 126.324363,41.0686777 125.880889,41.0686777 C125.398893,41.0686777 124.998715,41.2829336 124.677809,41.712082 C124.357539,42.1402754 124.197086,42.8365273 124.197086,43.7992461 L124.197086,43.7992461 Z M120.403834,52.5292969 L120.403834,38.7758535 L123.946537,38.7758535 L123.946537,40.0833555 C124.438084,39.5360957 124.888563,39.1664805 125.298609,38.9735547 C125.851281,38.7147285 126.463168,38.5854746 127.133951,38.5854746 C128.457371,38.5854746 129.480896,39.0897559 130.205164,40.0999102 C130.929113,41.1100645 131.291725,42.3577148 131.291725,43.8438164 C131.291725,45.4855957 130.896959,46.7383398 130.108383,47.6033223 C129.31917,48.4679863 128.320795,48.9 127.112939,48.9 C126.530023,48.9 125.998045,48.8134063 125.516049,48.6392637 C125.034371,48.4648027 124.603949,48.2062949 124.223828,47.8615117 L124.223828,52.5292969 L120.403834,52.5292969 L120.403834,52.5292969 Z" id="Shape" fill="#FFFFFF"></path>
                    <path d="M137.786574,34.955541 L137.786574,38.7758535 L139.887746,38.7758535 L139.887746,41.6410879 L137.786574,41.6410879 L137.786574,45.2353652 C137.786574,45.6667422 137.827961,45.9519922 137.912008,46.091752 C138.038715,46.3085547 138.26284,46.4164785 138.583746,46.4164785 C138.87218,46.4164785 139.274586,46.3343418 139.792557,46.1691133 L140.078125,48.6166602 C139.127186,48.8051289 138.238963,48.9 137.413775,48.9 C136.45615,48.9 135.750348,48.7809336 135.297322,48.5415273 C134.843342,48.3037129 134.508109,47.9395098 134.291307,47.4508281 C134.073867,46.9627832 133.966262,46.1729336 133.966262,45.0825527 L133.966262,41.6410879 L132.628834,41.6410879 L132.628834,38.7758535 L133.966262,38.7758535 L133.966262,36.9315977 L137.786574,34.955541" id="Shape" fill="#FFFFFF"></path>
                    <path d="M163,116.179205 C150.81766,103.596051 111.425781,63.9902344 111.425781,63.9902344 L54.1210938,63.9902344 L47.7539062,117.15625 L94.5527344,163 L163,163 L163,116.179205" id="Shape" opacity="0.191" fill="#010101"></path>
                    <path d="M97.6771133,84.9258652 L108.991605,84.9818965 L108.04767,92.607877 L107.529381,96.7086641 L104.993012,117.15243 L75.0618184,127.34375 L47.6711328,117.15243 L49.3444297,103.564215 L60.6675176,103.564215 L59.9865469,109.164156 L76.5463281,115.316133 L94.6609766,109.164156 L96.2518184,96.3355469 L61.4188457,96.3355469 L50.1049902,96.2795156 L51.0492441,88.6541719 L51.5675332,84.552748 L54.103584,64.1093008 L84.0354141,53.9179805 L111.425781,64.1093008 L109.752803,77.697834 L98.4287598,77.697834 L99.1100488,72.0966191 L82.5505859,65.9449609 L64.4353008,72.0966191 L62.844459,84.9258652 L97.6771133,84.9258652" id="Shape" fill="#FFFFFF"></path>
                </g>
            </g>
        </g>
    </g>
</svg>