<?xml version="1.0" encoding="UTF-8" standalone="no"?>
<svg width="163px" height="163px" viewBox="0 0 163 163" version="1.1" xmlns="http://www.w3.org/2000/svg" xmlns:xlink="http://www.w3.org/1999/xlink" xmlns:sketch="http://www.bohemiancoding.com/sketch/ns">
    <!-- Generator: Sketch 3.3.3 (12081) - http://www.bohemiancoding.com/sketch -->
    <title>MySql</title>
    <desc>Created with Sketch.</desc>
    <defs></defs>
    <g id="Page-1" stroke="none" stroke-width="1" fill="none" fill-rule="evenodd" sketch:type="MSPage">
        <g id="Artboard-1" sketch:type="MSArtboardGroup" transform="translate(-64.000000, -10.000000)">
            <g id="MySql" sketch:type="MSLayerGroup" transform="translate(64.000000, 10.000000)">
                <path d="M0.127730994,163 L162.809992,163 L162.809992,0 L0.127730994,0 L0.127730994,163 L135.011812,32.8015911" id="Shape-Copy" fill="#F8F7E3" sketch:type="MSShapeGroup"></path>
                <g id="Group-+-Group" transform="translate(13.000000, 11.000000)" fill="#00618A" sketch:type="MSShapeGroup">
                    <g id="Group" transform="translate(0.015192, 0.353899)">
                        <path d="M124.766685,108.913286 C117.377417,108.701394 111.732967,109.428163 106.90757,111.580744 C105.53624,112.192655 103.349601,112.208498 103.125882,114.026409 C103.879412,114.862094 103.996419,116.10968 104.595499,117.137453 C105.74779,119.109828 107.692926,121.752532 109.428384,123.138739 C111.324844,124.652675 113.27934,126.272557 115.312465,127.583512 C118.928471,129.9163 122.965703,131.248049 126.447852,133.584798 C128.499698,134.962094 130.53844,136.696833 132.540675,138.251365 C133.530092,139.019719 134.195632,140.214828 135.48178,140.696039 L135.48178,140.474246 C134.805944,139.5643 134.631836,138.312754 134.011228,137.362212 C133.101376,136.399788 132.190588,135.436374 131.279801,134.472961 C128.609217,130.723271 125.218803,127.430039 121.614967,124.694261 C118.741258,122.511975 112.308645,119.564305 111.10955,116.026507 C111.039345,115.952246 110.970077,115.877985 110.898936,115.803724 C112.936742,115.561138 115.322762,114.780901 117.203309,114.248202 C120.362517,113.352118 123.185678,113.583813 126.447852,112.69268 C127.918404,112.248103 129.388957,111.802537 130.860445,111.358951 L130.860445,110.469798 C129.211105,108.679611 128.035412,106.311177 126.237238,104.691296 C121.532593,100.453463 116.397361,96.2195911 111.10955,92.6891202 C108.17687,90.7310039 104.55244,89.458565 101.444716,87.7992754 C100.399136,87.2413271 98.5625831,86.9512138 97.8717698,86.021069 C96.2392788,83.8192773 95.3500205,81.0287438 94.0910179,78.4643601 C91.4531969,73.0921153 88.8631151,67.2246975 86.5267059,61.572934 C84.9325934,57.7186847 83.8916931,53.9176064 81.9044348,50.4598123 C72.3640972,33.8681039 62.0945678,23.8534522 46.1862046,14.009997 C42.8014066,11.9166266 38.7257954,11.0898532 34.418977,10.0098 C32.1087775,9.86187192 29.7967059,9.71295369 27.4855703,9.56502562 C26.0749258,8.94133153 24.6071816,7.11569704 23.2835908,6.231 C18.0135652,2.70937108 4.49590281,-4.95073892 0.592526854,5.11995517 C-1.87212276,11.4766049 4.27592839,17.6795837 6.47473657,20.9004355 C8.01830179,23.1601507 9.99432737,25.6935429 11.0970077,28.2346581 C11.8224552,29.9046414 11.9478875,31.5793773 12.5684962,33.3468901 C14.0961483,37.7000749 15.4244194,42.4361498 17.400445,46.4596153 C18.3992225,48.4950621 19.5000307,50.6397222 20.7627775,52.4604059 C21.5369003,53.5772926 22.8632992,54.0693961 23.072977,55.7944315 C21.7755959,57.7148232 21.7016471,60.6958611 20.9724552,63.1287532 C17.6887519,74.0812729 18.9271611,87.6948148 23.7038824,95.8007586 C25.1697545,98.289 28.6219488,103.625897 33.3687161,101.579261 C37.5210844,99.790064 36.5934476,94.2462266 37.7813095,89.3550946 C38.0499591,88.245931 37.8852123,87.4308414 38.4112788,86.6882305 L38.4112788,86.9106177 C39.6721535,89.5774818 40.9330281,92.2442468 42.1939028,94.9106158 C44.9927263,99.6791675 49.9604041,104.662581 54.1698721,108.025123 C56.3527673,109.768773 58.071376,112.783773 60.893601,113.803626 L60.893601,113.580842 L60.6829872,113.580842 C60.1363274,112.678818 59.2807673,112.305532 58.5824655,111.580744 C56.9378056,109.875709 55.1096777,107.755803 53.7495806,105.802241 C49.9210895,100.303951 46.5372276,94.2858325 43.4547775,88.0216626 C41.9823529,85.0309212 40.702757,81.7307586 39.4615396,78.6867473 C38.9832123,77.5129271 38.9888286,75.7385823 37.9919233,75.1304335 C36.6327621,77.3611374 34.6305269,79.1644936 33.5793299,81.7983857 C31.8981637,86.0084941 31.6809974,91.1429054 31.0585166,96.4671281 C30.6897084,96.6067389 30.8535192,96.5106946 30.637289,96.6889212 C27.7111611,95.9423498 26.6824297,92.7557571 25.5956624,90.0222562 C22.844578,83.1086483 22.3334885,71.9762187 24.7541432,64.018302 C25.3803683,61.9596857 28.2110179,55.4744158 27.0652788,53.5724409 C26.5186189,51.6743276 24.7138926,50.5768478 23.7038824,49.1264793 C22.4542404,47.3337177 21.2064706,44.9734034 20.3415499,42.9032025 C18.0903223,37.5125409 17.0391253,31.4613517 14.6690179,26.0126675 C13.5363836,23.4076877 11.620266,20.7718153 10.0467468,18.4560576 C8.30473657,15.8907828 6.35398465,14.0012837 5.00418414,10.8984576 C4.52398465,9.79612611 3.87154987,8.03138571 4.58389258,6.89816158 C4.81041944,6.13327241 5.12961637,5.8142468 5.84476726,5.56472956 C7.06351918,4.5707301 10.4576777,5.89543892 11.726977,6.45338719 C15.096798,7.93375714 17.9087263,9.34352956 20.7627775,11.343232 C22.1331714,12.3043685 23.5185422,14.1627768 25.1744348,14.6772576 L27.0652788,14.6772576 C30.0232327,15.3966 33.33689,14.900635 36.1001432,15.7882034 C40.9845115,17.3585778 45.3615345,19.8010744 49.3369872,22.4562547 C61.4477494,30.5447719 71.3494066,42.0591015 78.1227468,55.7944315 C79.2123223,58.0058276 79.6840972,60.1167236 80.6435601,62.4624828 C82.5802711,67.1928148 85.0196471,72.0603813 86.9460614,76.6861537 C88.8687315,81.3014305 90.7427263,85.9591847 93.4601125,89.799869 C94.8894783,91.8187803 100.40756,92.9018039 102.915269,94.0224532 C104.673192,94.8086305 107.553453,95.6274828 109.218706,96.6889212 C112.399442,98.7187241 115.480957,101.134685 118.464184,103.357567 C119.95533,104.468512 124.538286,106.905266 124.766685,108.913286 L124.766685,108.913286 Z" id="Shape"></path>
                    </g>
                    <g id="Group" transform="translate(27.080471, 24.558338)">
                        <path d="M3.78262404,0.0300014778 C2.24186701,-1.66533454e-16 1.15229156,0.207931034 0,0.473884729 L0,0.696271921 L0.210613811,0.696271921 C0.945421995,2.29357833 2.24280307,3.32145074 3.15171867,4.69745911 C3.85189258,6.25327833 4.5520665,7.80909754 5.25317647,9.3639266 C5.32244501,9.29035862 5.39358568,9.21599852 5.46285422,9.14243054 C6.76397954,8.17258079 7.36025064,6.62072217 7.35369821,4.25268473 C6.83231202,3.67245813 6.75555499,2.94440246 6.30343734,2.25199212 C5.70248593,1.32957044 4.5398977,0.805485222 3.78262404,0.0300014778 L3.78262404,0.0300014778 Z" id="Shape"></path>
                    </g>
                </g>
                <g id="MySQL" transform="translate(8.000000, 140.000000)" sketch:type="MSShapeGroup">
                    <g id="Group" transform="translate(0.128947, 0.072223)" fill="#00618A">
                        <path d="M0,11.3684437 L2.24293188,11.3684437 L2.24293188,1.95380911 L5.71528623,10.1611441 C6.12498311,11.1545717 6.68581214,11.5060123 7.7856204,11.5060123 C8.88558586,11.5060123 9.42473975,11.1545717 9.83461128,10.1611441 L13.3068084,1.95380911 L13.3068084,11.3684437 L15.549915,11.3684437 L15.549915,1.96921829 C15.549915,1.05227956 15.2046846,0.608940887 14.4930902,0.379845443 C12.7893122,-0.185652709 11.6461886,0.303356527 11.1285177,1.52606527 L7.72096176,9.62609298 L4.42122258,1.52606527 C3.92520939,0.303356527 2.76058529,-0.185652709 1.05682127,0.379845443 C0.345053948,0.608940887 0,1.05227956 0,1.96921829 L0,11.3684437 L0,11.3684437 Z" id="Shape"></path>
                    </g>
                    <g id="Group" transform="translate(17.543417, 3.752416)" fill="#00618A">
                        <path d="M0.000349317367,0.0252487685 L2.24261749,0.0252487685 L2.24261749,5.21201416 C2.22165845,5.49383498 2.32767627,6.15512993 3.55640011,6.17573738 C4.18325012,6.18613393 8.39444564,6.17573738 8.43374384,6.17573738 L8.43374384,0 L10.6812518,0 C10.6915566,0 10.6789812,8.42194951 10.6791559,8.45778048 C10.6915566,10.534863 8.25454403,10.9859991 7.13131404,11.0209018 L0.04907909,11.0209018 L0.04907909,9.41704803 C0.0614798565,9.41704803 7.12607428,9.41853325 7.14388947,9.41667672 C8.58744348,9.25460191 8.41697661,8.49194058 8.41680195,8.23518288 L8.41680195,7.60990456 L3.64949319,7.60990456 C1.43150257,7.58818319 0.0190377965,6.55929587 0.00157192815,5.3755742 C-4.47233396e-17,5.26585345 0.0494284074,0.0770458744 0.000349317367,0.0252487685 L0.000349317367,0.0252487685 Z" id="Shape"></path>
                    </g>
                    <g id="Group" transform="translate(29.953266, 0.436845)" fill="#E48E00">
                        <path d="M0,11.0038217 L6.44839859,11.0038217 C7.20327342,11.0038217 7.93666523,10.835806 8.51897728,10.5452595 C9.48938093,10.0716595 9.96392857,9.42985807 9.96392857,8.58903695 L9.96392857,6.84687192 C9.96392857,6.15902863 9.42475721,5.51704156 8.36789752,5.08929772 C7.80706849,4.85983097 7.11699203,4.73767149 6.44839859,4.73767149 L3.73088414,4.73767149 C2.82527886,4.73767149 2.39387191,4.44731065 2.28610751,3.80550924 C2.26444983,3.72902032 2.26444983,3.66775493 2.26444983,3.59145166 L2.26444983,2.50649723 C2.26444983,2.44523183 2.26444983,2.38396644 2.28610751,2.30766318 C2.39387191,1.81865394 2.63123306,1.68089963 3.42907393,1.60459637 C3.4938723,1.60459637 3.57997903,1.58918719 3.6447774,1.58918719 L10.05021,1.58918719 L10.05021,0 L3.75254181,0 C2.84676188,0 2.37221424,0.0610797414 1.94098195,0.198462746 C0.603795068,0.641801416 0.0214830181,1.34486823 0.0214830181,2.56757697 L0.0214830181,3.95830142 C0.0214830181,5.02821798 1.1646241,5.94515671 3.08394837,6.15902863 C3.2998265,6.17425216 3.51535532,6.18947568 3.73088414,6.18947568 L6.06013234,6.18947568 C6.14658838,6.18947568 6.23286977,6.18947568 6.29749349,6.20488485 C7.00922762,6.26615025 7.31103783,6.40353325 7.52691596,6.67867057 C7.65616338,6.81605357 7.69930408,6.95380788 7.69930408,7.10660006 L7.69930408,8.49732451 C7.69930408,8.66552586 7.59153967,8.87958344 7.37601086,9.06282266 C7.1817904,9.24624754 6.85832252,9.36859267 6.42691557,9.39922537 C6.34063418,9.39922537 6.27601047,9.41444889 6.18972908,9.41444889 L0,9.41444889 L0,11.0038217 L0,11.0038217 Z" id="Shape"></path>
                    </g>
                    <g id="Group" transform="translate(53.909451, 0.436845)" fill="#E48E00">
                        <path d="M0,8.23759637 C0,9.87282543 1.14296642,10.7899498 3.45073161,10.9733747 C3.66626042,10.9885982 3.88213855,11.0038217 4.09766737,11.0038217 L9.94244555,11.0038217 L9.94244555,9.41444889 L4.05452668,9.41444889 C2.73899747,9.41444889 2.24296681,9.06282266 2.24296681,8.22237284 L2.24296681,0 L0,0 L0,8.23759637 L0,8.23759637 Z" id="Shape"></path>
                    </g>
                    <g id="Group" transform="translate(41.348697, 0.457081)" fill="#E48E00">
                        <path d="M0,8.30071829 L0,2.63422629 C0,1.19467518 0.951016531,0.321550493 2.8310426,0.0458562192 C3.02561237,0.0154091749 3.24183982,0 3.43623494,0 L7.693715,0 C7.90976779,0 8.10451222,0.0154091749 8.32056502,0.0458562192 C10.2007657,0.321550493 11.1516076,1.19467518 11.1516076,2.63422629 L11.1516076,8.30071829 C11.1516076,9.46865948 10.7477967,10.0937522 9.81704062,10.5010742 L12.026473,12.6208568 L9.42213733,12.6208568 L7.63468037,10.9057971 L5.83517195,11.0270283 L3.43623494,11.0270283 C3.02561237,11.0270283 2.59350679,10.9655773 2.11791119,10.827823 C0.691648386,10.4143744 0,9.61792426 0,8.30071829 L0,8.30071829 Z M2.42094401,8.16296398 C2.42094401,8.23963855 2.44242703,8.31612746 2.4640847,8.40802555 C2.59368145,9.06653571 3.17721611,9.43412808 4.06325961,9.43412808 L6.10100247,9.43412808 L4.22918536,7.63793812 L6.83352099,7.63793812 L8.4660557,9.20447568 C8.76681795,9.03404649 8.9648809,8.77339009 9.03404574,8.43865825 C9.05552876,8.36216933 9.05552876,8.28549477 9.05552876,8.20900585 L9.05552876,2.77216626 C9.05552876,2.71090086 9.05552876,2.63422629 9.03404574,2.55755172 C8.90427434,1.94508344 8.32073967,1.59290025 7.45635385,1.59290025 L4.06325961,1.59290025 C3.06927704,1.59290025 2.42094401,2.0523907 2.42094401,2.77216626 L2.42094401,8.16296398 L2.42094401,8.16296398 Z" id="Shape"></path>
                    </g>
                </g>
            </g>
        </g>
    </g>
</svg>