<?xml version="1.0" encoding="UTF-8" standalone="no"?>
<svg width="163px" height="163px" viewBox="0 0 163 163" version="1.1" xmlns="http://www.w3.org/2000/svg" xmlns:xlink="http://www.w3.org/1999/xlink" xmlns:sketch="http://www.bohemiancoding.com/sketch/ns">
    <!-- Generator: Sketch 3.3.3 (12081) - http://www.bohemiancoding.com/sketch -->
    <title>Node</title>
    <desc>Created with Sketch.</desc>
    <defs></defs>
    <g id="Page-1" stroke="none" stroke-width="1" fill="none" fill-rule="evenodd" sketch:type="MSPage">
        <g id="Artboard-1" sketch:type="MSArtboardGroup" transform="translate(-670.000000, -10.000000)">
            <g id="Node" sketch:type="MSLayerGroup" transform="translate(670.000000, 10.000000)">
                <g id="Group" sketch:type="MSShapeGroup">
                    <path d="M0,163 L163,163 L163,0 L0,0 L0,163" id="Shape" fill="#8FC84E"></path>
                    <path d="M163,108.878906 C153.449219,96.78125 139.971475,78.3845352 139.971475,78.3845352 L28.6523438,78.3164062 L22.2851562,96.1445312 L79.2714844,163 L163,163 L163,108.878906" id="Shape" opacity="0.1" fill="#010101"></path>
                    <path d="M47.608416,77.950293 C47.608416,77.4526973 47.3467246,76.9958516 46.9178945,76.7497598 L35.4782871,70.1651328 C35.2847246,70.0517969 35.0676035,69.9922637 34.8482539,69.9839863 L34.7298242,69.9839863 C34.5111113,69.9922637 34.294627,70.0517969 34.0981992,70.1651328 L22.6582734,76.7497598 C22.2316719,76.9955332 21.9667969,77.4523789 21.9667969,77.950293 L21.9919473,95.6771797 C21.9919473,95.9239082 22.1199277,96.154082 22.3367305,96.2741035 C22.5490762,96.4014473 22.8117227,96.4014473 23.0231133,96.2741035 L29.8216777,92.3808867 C30.2517813,92.1255625 30.5131543,91.675084 30.5131543,91.181627 L30.5131543,82.9007812 C30.5131543,82.4070059 30.7745273,81.9492051 31.2030391,81.7043867 L34.0981992,80.037457 C34.3140469,79.9113867 34.5499512,79.8505801 34.7909492,79.8505801 C35.0265352,79.8505801 35.2684883,79.9110684 35.4782871,80.037457 L38.3718555,81.7043867 C38.8003672,81.9492051 39.0626953,82.4070059 39.0626953,82.9007812 L39.0626953,91.181627 C39.0626953,91.675084 39.3278887,92.1290645 39.755127,92.3808867 L46.5517813,96.2741035 C46.7654004,96.4014473 47.0315488,96.4014473 47.2429395,96.2741035 C47.453375,96.154082 47.5861309,95.9239082 47.5861309,95.6771797 L47.608416,77.950293" id="Shape" fill="#FFFFFF"></path>
                    <path d="M101.183523,87.1808047 C101.183523,87.3043281 101.116986,87.4179824 101.010018,87.4800625 L97.0808262,89.7435977 C96.9738574,89.8053594 96.8433301,89.8053594 96.7363613,89.7435977 L92.8065332,87.4800625 C92.6992461,87.4179824 92.6339824,87.3040098 92.6339824,87.1808047 L92.6339824,82.6432285 C92.6339824,82.5197051 92.6992461,82.4057324 92.8058965,82.3446074 L96.7354063,80.0750234 C96.8433301,80.0132617 96.9738574,80.0132617 97.0817813,80.0750234 L101.010018,82.3446074 C101.116986,82.4057324 101.183523,82.5200234 101.183523,82.6432285 L101.183523,87.1808047 L101.183523,87.1808047 Z M102.245252,53.5808379 C102.030678,53.4611348 101.769941,53.464 101.557914,53.5881602 C101.347479,53.7123203 101.217906,53.9386738 101.217906,54.1838105 L101.217906,71.7400566 C101.217906,71.9122891 101.124627,72.0724238 100.976271,72.1586992 C100.826961,72.2456113 100.642313,72.2456113 100.491729,72.1586992 L97.6274492,70.5083242 C97.1992559,70.260959 96.6733262,70.2619141 96.2467246,70.5083242 L84.8023418,77.1130078 C84.3744668,77.3600547 84.1108652,77.8153086 84.1108652,78.3094023 L84.1108652,91.5213164 C84.1108652,92.0150918 84.3744668,92.4706641 84.8020234,92.718666 L96.2444961,99.328125 C96.6730078,99.5754902 97.1998926,99.5754902 97.6271309,99.328125 L109.073105,92.718666 C109.500662,92.4709824 109.763945,92.0150918 109.763945,91.5213164 L109.763945,58.5870391 C109.763945,58.0868965 109.49334,57.624957 109.055277,57.3807754 L102.245252,53.5808379 L102.245252,53.5808379 Z" id="Shape" fill="#FFFFFF"></path>
                    <path d="M139.963834,82.5254355 C140.390754,82.277752 140.651809,81.8228164 140.651809,81.3299961 L140.651809,78.1282559 C140.651809,77.6354355 140.390754,77.1801816 139.963834,76.9331348 L128.593629,70.330998 C128.166391,70.082041 127.637277,70.082041 127.208766,70.3290879 L115.768203,76.9337715 C115.340328,77.1808184 115.077682,77.6363906 115.077682,78.1308027 L115.077682,91.3382598 C115.077682,91.8352187 115.344467,92.2933379 115.775207,92.5391113 L127.144457,99.0170879 C127.5631,99.2571309 128.078205,99.2587227 128.498758,99.0247285 L135.375639,95.2028242 C135.59467,95.0812109 135.730291,94.8523105 135.731246,94.6036719 C135.732838,94.3543965 135.600719,94.1242227 135.384553,93.9994258 L123.872359,87.391877 C123.656512,87.2689902 123.524393,87.0397715 123.524393,86.7924062 L123.524393,82.6527793 C123.524393,82.4070059 123.655875,82.1777871 123.870449,82.054582 L127.453584,79.9884297 C127.666566,79.865543 127.92985,79.865543 128.14315,79.9884297 L131.728195,82.054582 C131.942133,82.1777871 132.074252,82.4066875 132.074252,82.6527793 L132.074252,85.9092773 C132.074252,86.1569609 132.206371,86.3849063 132.420627,86.5093848 C132.634883,86.6319531 132.898484,86.630998 133.112422,86.5071562 L139.963834,82.5254355" id="Shape" fill="#FFFFFF"></path>
                    <path d="M65.1936328,70.2593672 C65.6208711,70.0132754 66.1480742,70.0132754 66.5753125,70.2593672 L78.0181035,76.8627773 C78.4462969,77.1098242 78.7095801,77.5657148 78.7095801,78.060127 L78.7095801,91.2771348 C78.7095801,91.7705918 78.4462969,92.2261641 78.0190586,92.4744844 L66.5759492,99.0829883 C66.1480742,99.3300352 65.6211895,99.3300352 65.1936328,99.0829883 L53.7533887,92.4744844 C53.3261504,92.2264824 53.0628672,91.7705918 53.0628672,91.2771348 L53.0628672,78.0594902 C53.0628672,77.5657148 53.3261504,77.1101426 53.7540254,76.8627773 L65.1936328,70.2593672" id="Shape" fill="#FFFFFF"></path>
                </g>
            </g>
        </g>
    </g>
</svg>