<?xml version="1.0" encoding="UTF-8" standalone="no"?>
<svg width="163px" height="163px" viewBox="0 0 163 163" version="1.1" xmlns="http://www.w3.org/2000/svg" xmlns:xlink="http://www.w3.org/1999/xlink" xmlns:sketch="http://www.bohemiancoding.com/sketch/ns">
    <!-- Generator: Sketch 3.3.3 (12081) - http://www.bohemiancoding.com/sketch -->
    <title>PHP</title>
    <desc>Created with Sketch.</desc>
    <defs></defs>
    <g id="Page-1" stroke="none" stroke-width="1" fill="none" fill-rule="evenodd" sketch:type="MSPage">
        <g id="Artboard-1" sketch:type="MSArtboardGroup" transform="translate(-670.000000, -187.000000)">
            <g id="PHP-logo" sketch:type="MSLayerGroup" transform="translate(670.000000, 187.000000)">
                <path d="M0,163 L163,163 L163,0 L0,0 L0,163" id="Shape-Copy-6" fill="#6C7EB7" sketch:type="MSShapeGroup"></path>
                <path d="M15.5668912,113.773442 L25.5662252,62.7656604 L48.6896852,62.7656604 C58.6890192,63.3953861 63.6886862,68.4331917 63.6886862,77.2493515 C63.6886862,92.3627683 51.8144771,101.178928 41.1901847,100.549202 L29.9409339,100.549202 L27.4411004,113.773442 L15.5668912,113.773442 L15.5668912,113.773442 Z M32.4407674,91.1033169 L35.5655593,72.2115459 L43.6900182,72.2115459 C48.0647268,72.2115459 51.1895187,74.100723 51.1895187,77.8790772 C50.5645603,88.5844141 45.5648933,90.4735912 39.9402679,91.1033169 L32.4407674,91.1033169 L32.4407674,91.1033169 Z" id="p" stroke="#FFFFFF" stroke-width="2" fill="#000000" sketch:type="MSShapeGroup"></path>
                <path d="M59.938936,100.23434 L69.93827,49.2265578 L81.8124792,49.2265578 L79.3126457,62.4507975 L90.5618965,62.4507975 C100.561231,63.0805232 104.310981,68.1183289 103.061064,74.4155859 L98.6863554,100.23434 L86.1871878,100.23434 L90.5618965,76.9344887 C91.1868548,73.7858602 91.1868548,71.8966831 86.8121462,71.8966831 L77.4377705,71.8966831 L71.8131452,100.23434 L59.938936,100.23434 L59.938936,100.23434 Z" id="h" stroke="#FFFFFF" stroke-width="2" fill="#000000" sketch:type="MSShapeGroup"></path>
                <g id="p2" transform="translate(99.311314, 62.450798)" stroke="#FFFFFF" stroke-width="2" fill="#000000" sketch:type="MSShapeGroup">
                    <path d="M0,51.0077818 L9.99933404,0 L33.122794,0 C43.122128,0.629725701 48.1217951,5.66753131 48.1217951,14.4836911 C48.1217951,29.597108 36.2475859,38.4132678 25.6232935,37.7835421 L14.3740427,37.7835421 L11.8742092,51.0077818 L0,51.0077818 L0,51.0077818 Z M16.8738762,28.3376566 L19.9986681,9.44588552 L28.123127,9.44588552 C32.4978356,9.44588552 35.6226275,11.3350626 35.6226275,15.1134168 C34.9976691,25.8187537 29.9980021,27.7079309 24.3733767,28.3376566 L16.8738762,28.3376566 L16.8738762,28.3376566 Z" id="p"></path>
                </g>
            </g>
        </g>
    </g>
</svg>