<?xml version="1.0" encoding="UTF-8" standalone="no"?>
<svg width="163px" height="163px" viewBox="0 0 163 163" version="1.1" xmlns="http://www.w3.org/2000/svg" xmlns:xlink="http://www.w3.org/1999/xlink" xmlns:sketch="http://www.bohemiancoding.com/sketch/ns">
    <!-- Generator: Sketch 3.3.3 (12081) - http://www.bohemiancoding.com/sketch -->
    <title>Python</title>
    <desc>Created with Sketch.</desc>
    <defs></defs>
    <g id="Page-1" stroke="none" stroke-width="1" fill="none" fill-rule="evenodd" sketch:type="MSPage">
        <g id="Artboard-1" sketch:type="MSArtboardGroup" transform="translate(-468.000000, -10.000000)">
            <g id="Python" sketch:type="MSLayerGroup" transform="translate(468.000000, 10.000000)">
                <g id="Group" sketch:type="MSShapeGroup">
                    <path d="M0,163 L163,163 L163,0 L0,0 L0,163" id="Shape" fill="#4A98C8"></path>
                    <path d="M163,112.699219 C150.902344,103.148438 114.609375,76.40625 114.609375,76.40625 L56.3496094,77.9980469 L64.3085938,121.294922 L114.291016,163 L163,163 L163,112.699219" id="Shape" opacity="0.191" fill="#010101"></path>
                    <path d="M70.9196445,57.7962344 C72.7686758,57.7962344 74.2789727,59.3307266 74.2789727,61.2176426 C74.2789727,63.0981914 72.7683574,64.6189941 70.9196445,64.6189941 C69.0636094,64.6189941 67.5603164,63.0985098 67.5603164,61.2176426 C67.559998,59.3307266 69.0636094,57.7962344 70.9196445,57.7962344 L70.9196445,57.7962344 Z M80.6006348,52.3086738 C77.5399277,52.323 74.617707,52.5840547 72.0463184,53.0393086 C64.4706387,54.377373 63.0956445,57.1789355 63.0956445,62.3446348 L63.0956445,69.1673945 L80.9969922,69.1673945 L80.9969922,71.4423906 L63.0956445,71.4423906 L56.3769883,71.4423906 C51.1743594,71.4423906 46.6192734,74.5693164 45.1939785,80.518498 C43.5499707,87.3371191 43.4770664,91.5919922 45.1939785,98.7114629 C46.4661426,104.011828 49.5052012,107.787252 54.7078301,107.787252 L60.8626719,107.787252 L60.8626719,99.6082813 C60.8626719,93.700168 65.9755234,88.4876699 72.0463184,88.4876699 L89.9266543,88.4876699 C94.9045215,88.4876699 98.8782832,84.389748 98.8782832,79.3908691 L98.8782832,62.3443164 C98.8782832,57.493793 94.7848184,53.8492148 89.9266543,53.0389902 C86.8519395,52.5270684 83.6603867,52.294666 80.6006348,52.3086738 L80.6006348,52.3086738 Z" id="Shape" fill="#FFFFFF"></path>
                    <path d="M91.0536465,114.609693 C92.9093633,114.609693 94.4126562,116.129859 94.4126562,118.011363 C94.4126562,119.897961 92.9093633,121.432771 91.0536465,121.432771 C89.2046152,121.432771 87.6943184,119.897961 87.6943184,118.011363 C87.6943184,116.129859 89.2046152,114.609693 91.0536465,114.609693 L91.0536465,114.609693 Z M101.110301,71.4417539 L101.110301,79.3908691 C101.110301,85.5539883 95.88475,90.7406992 89.9266543,90.7406992 L72.0463184,90.7406992 C67.1486777,90.7406992 63.0956445,94.9325371 63.0956445,99.8378184 L63.0956445,116.884371 C63.0956445,121.735213 67.3139063,124.589623 72.0463184,125.980535 C77.7127969,127.646828 83.1465547,127.948633 89.9266543,125.980535 C94.4333496,124.675898 98.8782832,122.05007 98.8782832,116.884371 L98.8782832,110.061293 L80.9969922,110.061293 L80.9969922,107.786297 L98.8782832,107.786297 L107.82832,107.786297 C113.031586,107.786297 114.970076,104.157955 116.779313,98.7105078 C118.648082,93.1032441 118.568811,87.7102363 116.779313,80.517543 C115.493141,75.3381543 113.037953,71.4414355 107.82832,71.4414355 L101.110301,71.4414355 L101.110301,71.4417539 Z" id="Shape" fill="#FFFFFF"></path>
                    <path d="M49.820377,35.5139434 C49.820377,36.7011055 50.0674238,37.5791406 50.5615176,38.1470938 C51.0549746,38.7156836 51.6560371,38.9990234 52.3647051,38.9990234 C53.0444023,38.9990234 53.6107637,38.7389238 54.062834,38.2174512 C54.5139492,37.6953418 54.7406211,36.8405469 54.7406211,35.652748 C54.7406211,34.5448574 54.5079004,33.7225352 54.0415039,33.1835527 C53.5757441,32.6461621 52.998877,32.3774668 52.3118574,32.3774668 C51.5961855,32.3774668 51.0027637,32.6413867 50.5296816,33.1692266 C50.0565996,33.6970664 49.820377,34.4792754 49.820377,35.5139434 L49.820377,35.5139434 Z M46.6893125,30.3081309 L49.820377,30.3081309 L49.820377,31.8856016 C50.1747109,31.3466191 50.6532051,30.9142871 51.2564961,30.5889238 C51.8597871,30.2635605 52.5289785,30.1008789 53.2627969,30.1008789 C54.5457852,30.1008789 55.6348926,30.5876504 56.5298008,31.5605566 C57.4243906,32.534418 57.8716855,33.8890371 57.8716855,35.6263242 C57.8716855,37.4139121 57.4100645,38.801959 56.4861855,39.7914199 C55.5623066,40.7808809 54.442,41.2749746 53.1259023,41.2749746 C52.4990527,41.2749746 51.9320547,41.1571816 51.4239531,40.9212773 C50.9164883,40.6856914 50.3813262,40.2820117 49.8200586,39.7105566 L49.8200586,45.2070312 L46.6889941,45.2070312 L46.6889941,30.3081309 L46.6893125,30.3081309 Z" id="Shape" fill="#FFFFFF"></path>
                    <path d="M58.990082,30.3081309 L62.1208281,30.3081309 L64.6931719,37.9255156 L67.2651973,30.3081309 L70.3962617,30.3081309 L66.4651602,40.570127 L65.7205176,42.5073438 C65.4712422,43.1364219 65.2340645,43.6171445 65.0096211,43.9491934 C64.784541,44.2809238 64.5257148,44.5508926 64.2334609,44.7575078 C63.9408887,44.9644414 63.5817793,45.1255313 63.1554961,45.2407773 C62.7292129,45.3560234 62.2468984,45.4133281 61.7088711,45.4133281 C61.16575,45.4133281 60.6321797,45.3566602 60.1081602,45.2423691 L59.8843535,43.0049395 C60.3131836,43.0937617 60.6996719,43.137377 61.0447734,43.137377 C61.6808555,43.137377 62.1507539,42.9434961 62.4551055,42.5538242 C62.7591387,42.1647891 62.9924961,41.6700586 63.1558145,41.0683594 L58.990082,30.3081309" id="Shape" fill="#FFFFFF"></path>
                    <path d="M78.0005938,30.3081309 L78.0005938,32.5844004 L75.7647559,32.5844004 L75.7647559,36.9487891 C75.7647559,37.832873 75.787041,38.3479785 75.8325664,38.4947422 C75.8777734,38.6408691 75.9806035,38.7615273 76.1401016,38.8563984 C76.2995996,38.9515879 76.4931621,38.9983867 76.7217441,38.9983867 C77.0432871,38.9983867 77.5068184,38.9070176 78.1123379,38.7245977 L78.2244004,40.864291 C77.4902637,41.1383984 76.6577539,41.2746562 75.7255977,41.2746562 C75.1576445,41.2746562 74.6444492,41.1896543 74.1869668,41.0180586 C73.7285293,40.8467812 73.3926602,40.6245664 73.1780859,40.3517324 C72.9638301,40.0792168 72.8161113,39.710875 72.734293,39.2476621 C72.6671191,38.9184785 72.633373,38.2527891 72.633373,37.2525039 L72.633373,32.584082 L71.0676816,32.584082 L71.0676816,30.3078125 L72.633373,30.3078125 L72.633373,28.2384766 L75.7644375,26.5833262 L75.7644375,30.3081309 L78.0005938,30.3081309" id="Shape" fill="#FFFFFF"></path>
                    <path d="M82.697668,26.169459 L82.697668,31.7471152 C83.6737578,30.6500488 84.8399082,30.1008789 86.1961191,30.1008789 C86.8904609,30.1008789 87.5163555,30.2221738 88.0757129,30.465082 C88.634752,30.7076719 89.0565781,31.0167988 89.3402363,31.394373 C89.6248496,31.7716289 89.8187305,32.188998 89.9225156,32.6458437 C90.0263008,33.1030078 90.077875,33.8129492 90.077875,34.776623 L90.077875,41.0683594 L86.9471289,41.0683594 L86.9471289,35.4712832 C86.9471289,34.3589355 86.8907793,33.6540879 86.7793535,33.3551484 C86.667291,33.0568457 86.4699082,32.8190312 86.1872051,32.6429785 C85.9041836,32.465334 85.5492129,32.3774668 85.123248,32.3774668 C84.6313828,32.3774668 84.1933203,32.4908027 83.8090605,32.7171562 C83.4248008,32.9431914 83.1430527,33.2844727 82.9650898,33.7406816 C82.7864902,34.1965723 82.697668,34.8692656 82.697668,35.7597168 L82.697668,41.0683594 L79.5669219,41.0683594 L79.5669219,26.169459 L82.697668,26.169459" id="Shape" fill="#FFFFFF"></path>
                    <path d="M95.6695391,35.6880859 C95.6695391,36.7571367 95.9385527,37.5765938 96.4768984,38.1458203 C97.0146074,38.7147285 97.6796602,38.9990234 98.4720566,38.9990234 C99.2619062,38.9990234 99.9244121,38.7147285 100.459256,38.1458203 C100.993463,37.5765938 101.260885,36.7507695 101.260885,35.6689844 C101.260885,34.6129863 100.993463,33.8005332 100.459256,33.2313066 C99.9240938,32.6620801 99.2619062,32.3774668 98.4720566,32.3774668 C97.6799785,32.3774668 97.0149258,32.6620801 96.4768984,33.2313066 C95.9385527,33.8002148 95.6695391,34.6190352 95.6695391,35.6880859 L95.6695391,35.6880859 Z M92.5381563,35.5359102 C92.5381563,34.5964316 92.7871133,33.6871973 93.2843906,32.8091621 C93.7819863,31.9308086 94.4865156,31.2600254 95.399252,30.7961758 C96.3103965,30.3326445 97.3294648,30.1008789 98.4545469,30.1008789 C100.192789,30.1008789 101.616811,30.6264902 102.727248,31.6773945 C103.837049,32.7282988 104.391949,34.0555391 104.391949,35.6587969 C104.391949,37.2754258 103.831318,38.6163555 102.70942,39.6799941 C101.588477,40.7433145 100.176871,41.2749746 98.4761953,41.2749746 C97.4230625,41.2749746 96.4183203,41.0540332 95.4635605,40.610877 C94.5081641,40.1680391 93.782623,39.5189043 93.284709,38.6631543 C92.7871133,37.8067676 92.5381563,36.7647773 92.5381563,35.5359102 L92.5381563,35.5359102 Z" id="Shape" fill="#FFFFFF"></path>
                    <path d="M117.363502,41.0683594 L114.233074,41.0683594 L114.233074,35.6587969 C114.233074,34.5162051 114.169402,33.777293 114.043969,33.4414238 C113.917898,33.1045996 113.71383,32.8432266 113.431764,32.6569863 C113.150016,32.4704277 112.810326,32.3771484 112.41174,32.3771484 C111.901092,32.3771484 111.444246,32.510541 111.040248,32.7763711 C110.635613,33.0428379 110.358641,33.394625 110.208693,33.8339609 C110.058746,34.2726602 109.982977,35.0841582 109.982977,36.2694102 L109.982977,41.0683594 L106.851912,41.0683594 L106.851912,30.3081309 L109.982977,30.3081309 L109.982977,31.8856016 C110.949834,30.6958926 112.168514,30.1008789 113.638061,30.1008789 C114.283057,30.1008789 114.874568,30.2135781 115.40973,30.4389766 C115.945848,30.6640566 116.350482,30.9521719 116.625863,31.3023672 C116.901244,31.6531992 117.092896,32.049875 117.200502,32.493668 C117.309699,32.9377793 117.363184,33.5748164 117.363184,34.4047793 L117.363184,41.0683594" id="Shape" fill="#FFFFFF"></path>
                </g>
            </g>
        </g>
    </g>
</svg>