<?xml version="1.0" encoding="UTF-8" standalone="no"?>
<svg width="163px" height="163px" viewBox="0 0 163 163" version="1.1" xmlns="http://www.w3.org/2000/svg" xmlns:xlink="http://www.w3.org/1999/xlink" xmlns:sketch="http://www.bohemiancoding.com/sketch/ns">
    <!-- Generator: Sketch 3.3.3 (12081) - http://www.bohemiancoding.com/sketch -->
    <title>Socket.io</title>
    <desc>Created with Sketch.</desc>
    <defs></defs>
    <g id="Page-1" stroke="none" stroke-width="1" fill="none" fill-rule="evenodd" sketch:type="MSPage">
        <g id="Artboard-1" sketch:type="MSArtboardGroup" transform="translate(-1068.000000, -374.000000)">
            <g id="Socket.io" sketch:type="MSLayerGroup" transform="translate(1068.000000, 374.000000)">
                <g id="Group" sketch:type="MSShapeGroup">
                    <path d="M163,163 L163,0 L0,0 L0,163 L163,163 Z" id="Shape-Copy-11" fill="#DF5A5A"></path>
                    <path d="M64.3300465,14.4541023 C82.4000746,9.81990698 102.370456,12.5204093 118.306753,22.3555721 C138.377153,34.3578047 151.479591,57.0620279 151.812986,80.4330416 C152.546456,104.037432 140.244168,127.441786 120.473823,140.277507 C98.4697305,155.08026 68.030735,155.647032 45.5598884,141.577749 C22.6556279,127.90854 9.28647442,100.336744 12.7204465,73.8651533 C15.4876279,45.8932837 37.0916465,21.2220279 64.3300465,14.4541023 L64.3300465,14.4541023 L64.3300465,14.4541023 Z" id="Shape" fill="#010101"></path>
                    <path d="M61.5628651,25.8895628 C95.7025487,12.2203535 137.577005,37.4583814 141.110995,74.0651909 C146.612019,107.004651 119.2736,140.477544 85.9007254,141.444391 C54.1614884,144.611647 23.4891163,117.706642 22.5889488,85.8340467 C20.2218419,60.0292465 37.2250047,34.4244837 61.5628651,25.8895628 L61.5628651,25.8895628 L61.5628651,25.8895628 Z" id="Shape" fill="#FFFFFF"></path>
                    <path d="M64.9968372,78.4660091 C80.2996838,65.9636837 95.269135,53.0279442 110.905377,40.8923535 C102.703851,53.4946977 94.2689487,65.9303442 86.0674234,78.5326883 C79.0327812,78.5660279 71.9981396,78.5660279 64.9968372,78.4660091 L64.9968372,78.4660091 L64.9968372,78.4660091 Z" id="Shape" fill="#010101"></path>
                    <path d="M77.9325766,85.4339721 C85.0005584,85.4339721 92.0352,85.4339721 99.0698416,85.5339909 C83.6669766,97.969637 68.7642046,111.005395 53.0946232,123.107647 C61.2961488,110.505303 69.7310513,98.0363162 77.9325766,85.4339721 L77.9325766,85.4339721 L77.9325766,85.4339721 Z" id="Shape" fill="#010101"></path>
                </g>
            </g>
        </g>
    </g>
</svg>